<?xml version="1.0" encoding="utf-8"?>
<!-- Generator: Adobe Illustrator 23.0.2, SVG Export Plug-In . SVG Version: 6.00 Build 0)  -->
<svg version="1.1" id="Capa_1" xmlns="http://www.w3.org/2000/svg" xmlns:xlink="http://www.w3.org/1999/xlink" x="0px" y="0px"
	 viewBox="0 0 640 640" style="enable-background:new 0 0 640 640;" xml:space="preserve">
<style type="text/css">
	.st0{fill:#00202B;}
	.st1{clip-path:url(#SVGID_2_);fill:#FFFFFF;}
	.st2{fill:#4DCC89;}
	.st3{fill:#FFFFFF;}
	.st4{fill:#EB3B5A;}
</style>
<g>
	<path class="st0" d="M613.9,241.2c-21.5-80.1-55-153.9-98.1-219.7C508,9.5,494.9,2,480.6,1.2C402-3.2,321.4,4.6,241.2,26.1
		s-153.9,55-219.7,98.1C9.5,132,2,145.1,1.2,159.4C-3.2,238,4.6,318.6,26.1,398.8s55,153.9,98.1,219.7c7.9,12,20.9,19.6,35.3,20.4
		c78.6,4.4,159.2-3.5,239.3-24.9s153.9-55,219.7-98.1c12-7.9,19.6-20.9,20.4-35.3C643.2,402,635.4,321.4,613.9,241.2z"/>
	<g>
		<defs>
			<path id="SVGID_1_" d="M613.9,241.2c-21.5-80.2-55-153.9-98.1-219.7C508,9.5,494.9,2,480.6,1.2C402-3.2,321.4,4.6,241.2,26.1
				c-80.2,21.5-153.9,55-219.7,98.1C9.5,132,2,145.1,1.2,159.4C-3.2,238,4.6,318.6,26.1,398.8c21.5,80.2,55,153.9,98.1,219.7
				c7.9,12,20.9,19.6,35.3,20.4c78.6,4.4,159.2-3.5,239.3-24.9s153.9-55,219.7-98.1c12-7.9,19.6-20.9,20.4-35.3
				C643.2,402,635.4,321.4,613.9,241.2z"/>
		</defs>
		<clipPath id="SVGID_2_">
			<use xlink:href="#SVGID_1_"  style="overflow:visible;"/>
		</clipPath>
		<path class="st1" d="M650.1-26.7c-0.8-2.1-2.9-3.4-5.1-3.2l-4.9,0.4c-0.6-0.2-1.3-0.3-2-0.3c-2.9,0.2-6.5,0.4-7.2,0.5
			c-0.1,0-0.3,0-0.4,0.1l-3.6-2.3c-0.5-1.6-1.8-2.9-3.5-3.3l-6.4-1.6c-0.9-1-2.3-1.6-3.7-1.6h-1.6c-1.1,0-2.2,0.4-3.1,1.1l-1,0.8
			c-1.2,0-2.5,0.5-3.4,1.4c-0.3-0.1-0.6-0.1-0.9-0.1H602c-0.5,0-1,0.1-1.5,0.2c-0.4-0.2-0.9-0.3-1.3-0.3l-2.3-0.2
			c-0.4-0.8-1-1.4-1.7-1.9l-3.4-2.2c-0.9-0.6-2-0.9-3.1-0.8l-3.4,0.2c-0.9,0.1-1.7,0.3-2.4,0.8l-2.6,1.7c-1.4,0.9-2.2,2.4-2.3,4
			l0,1.2l-0.9,1.2c-0.7,0.9-1,2-1,3.1v1.9l-0.8,0.6c-0.3,0.2-0.5,0.4-0.8,0.7c-0.5-1.5-1.7-2.8-3.2-3.3l-2.2-0.7
			c-0.5-0.2-1-0.3-1.6-0.3h-0.5c-1.3-0.9-3.1-1.1-4.6-0.4l-3,1.2c-1.1,0.5-2,1.3-2.6,2.4l-4.8,9.6c-0.4,0.8-0.6,1.6-0.5,2.5l0.1,2.5
			l-1.5,3.4l-0.3,0.1c-0.9,0.3-1.7,0.9-2.3,1.7l-3.3,4.2l-0.9,0.4c-0.9,0.4-1.7,1-2.2,1.8l-1.4,0.3c-0.7,0.1-1.3,0.4-1.9,0.8
			L533.3,5c-0.1,0.1-0.2,0.2-0.3,0.2c-0.4-0.1-0.9-0.2-1.3-0.2l-1.1,0l-3.4-1.6c-0.6-1.1-1.6-2-2.9-2.4l-4.5-1.5l-1-1.4
			c-0.7-1-1.7-1.7-2.9-2.1c-0.3-1.2-1.1-2.2-2.1-2.8c-1.1-0.7-2.5-0.9-3.8-0.6l-3.4,0.8c-2.3,0.5-3.8,2.5-3.8,4.9v1.1
			c0,0.4,0,0.7,0.1,1.1c-0.9,1.7-0.6,3.7,0.5,5.2l-1.2,1.9c-1.3,2.1-1,4.8,0.8,6.4l1.8,1.7c0.4,0.3,0.8,0.6,1.2,0.8l0,0.3
			c0.1,1.2,0.6,2.3,1.4,3.2c-0.5,0.7-0.8,1.6-0.9,2.4l-0.1,1.5l-1.8,2.3c-0.1,0.2-0.2,0.3-0.3,0.5l-0.6,1c-1,1.7-1,3.8,0.1,5.3v4.6
			c0,1.4,0.6,2.7,1.6,3.7c-1.5,0.9-2.5,2.5-2.5,4.3V47c0,1.5,0.7,3,1.9,4l1.4,1.1c0.1,0.6,0.2,1.2,0.5,1.7c-0.8,0.9-1.3,2.1-1.3,3.3
			v1.6c0,1.2,0.5,2.4,1.3,3.3v0.7c-0.2,0.3-0.3,0.6-0.5,0.9c-1.2,0.5-2.1,1.5-2.6,2.7l-0.3,0.7c-1.1,0.4-2,1.1-2.6,2l-1.4,2.2
			c-0.5,0.7-0.7,1.5-0.8,2.4l-0.2,2.7c-1.2,0.2-2.3,0.8-3.1,1.7l-1.6,1.8c-0.7,0.8-1.1,1.9-1.2,2.9l0,0.6c-0.4,0.8-0.6,1.7-0.6,2.6
			l0.1,1.8c0.1,1.1,0.5,2.2,1.2,3.1l0.8,0.9l-0.9,0.7c-0.8,0.7-1.5,1.6-1.7,2.6l-0.4,1.4c-0.5,1.7,0,3.4,1.1,4.6l0,1
			c-0.4,0.1-0.8,0.2-1.2,0.3l-5,2.1c-0.6,0.2-1.1,0.6-1.5,1l-3.8,3.7c-0.4,0.4-0.7,0.8-1,1.3l-0.8,1.5l-3.4,1.8
			c-0.6,0-1.1,0.2-1.6,0.4l-1.4,0.6l-0.7-0.6c0-1.3-0.5-2.6-1.4-3.5l-1-1c-0.2-0.7-0.6-1.3-1-1.9l-0.1-0.2l-0.5-3.5
			c-0.1-0.7-0.4-1.4-0.8-2c-0.1-0.9-0.3-1.7-0.8-2.5l-3.5-5.2c0-1-0.3-2-0.9-2.9l-1-1.4c-0.6-0.8-1.4-1.5-2.4-1.8
			c-0.9-2.2-3.2-3.4-5.4-3c-0.1-0.4-0.3-0.8-0.5-1.1c-0.7-1.2-2-2.1-3.4-2.3l-0.5-0.1c-0.6-2.1-2.6-3.6-4.8-3.6H441
			c-0.3,0-0.6,0-0.9,0.1c-0.1,0-0.2-0.1-0.4-0.1c-1.4-0.3-2.8,0-3.9,0.8l-1.9,1.4c-0.3,0.2-0.7,0.5-0.9,0.8
			c-0.5,0.2-0.9,0.4-1.3,0.7l-4.2,3.1c-1.4,1-2.2,2.7-2,4.5l0.1,0.6c0.1,0.6,0.2,1.1,0.4,1.6c-0.8,1.9-0.5,4.1,1.1,5.6l2.5,2.5
			c1.1,1.1,2.6,1.6,4.1,1.4l0.8-0.1c0.1,0.7,0.3,1.4,0.7,2l1.8,3.1c0.7,1.2,1.9,2.1,3.2,2.4l0.1,0.2c0.9,1.2,2.2,1.9,3.7,2
			c0.1,0,0.3,0,0.4,0l0.1,0.9c0.2,1,0.6,1.9,1.3,2.6c0,0.1-0.1,0.2-0.1,0.3l-0.8,2.6l-1.1,3.3c-0.2,0.6-0.3,1.3-0.3,2l0.4,5.9
			c0.1,1,0.4,1.9,0.9,2.6l0,0.9c-0.1,1.2,0.3,2.4,1.1,3.4c-0.3,0.4-0.5,0.9-0.6,1.3l-0.3,0.1c-1.5,0.6-2.7,1.9-3.1,3.5l-0.8,3.7
			c-0.1,0.4-0.1,0.9-0.1,1.3l0.1,2.9c0.1,1.6,0.8,3,2.1,3.9l1.1,0.8c-0.6,0.8-1,1.7-1.1,2.7l-0.2,1.8c-0.6,0.8-1,1.7-1.1,2.7
			l-0.5,5.3c-0.1,0.6,0,1.2,0.1,1.8c-0.2,0.1-0.3,0.2-0.4,0.3l-3.2,2.3c-0.1,0.1-0.2,0.1-0.2,0.2c-0.3-0.1-0.6-0.1-1-0.1l-4.5,0.1
			c-1.3,0-2.6,0.6-3.5,1.6c-0.7,0.8-1.2,1.7-1.3,2.8c-1,0.8-1.7,2.1-1.8,3.4l-0.1,1.5l-1.4,1.7c-0.8,1-1.2,2.3-1.1,3.5
			c-0.8,1-1.2,2.2-1.1,3.4c-0.4,0.1-0.7,0.3-1.1,0.5l-0.8,0c-0.1,0-0.1-0.1-0.2-0.1c-1.3-0.9-3-1-4.5-0.4l-0.7,0.3
			c-0.7,0.3-1.4,0.7-1.9,1.3l-1,1.1c-0.6,0.7-1,1.5-1.2,2.3l-0.1,0c-0.8,0-1.7,0.1-2.4,0.5l-1.2,0.6c-1.2,0.6-2.1,1.6-2.6,2.8
			c-0.2,0.1-0.3,0.1-0.5,0.2l-1.5,0.7c-1,0.5-1.8,1.3-2.3,2.3l-0.4,0.8l-0.3,0.2c-0.8,0.6-1.4,1.4-1.8,2.3c-0.3,0.2-0.6,0.5-0.9,0.9
			l-0.6,0.8c-0.5,0.2-1,0.5-1.4,0.9l-0.9,0.8c-0.5,0.4-0.8,0.9-1.1,1.5c-1.7,0.9-2.8,2.8-2.7,4.8l0.1,0.8c0,0.2,0,0.3,0.1,0.5
			c-0.1,0.2-0.1,0.5-0.1,0.7c-0.8,0.9-1.3,2.1-1.3,3.3v0.4c-0.1,0.1-0.3,0.3-0.4,0.4l-2.4,2.5c-0.4,0.4-0.7,0.8-0.9,1.3
			c-2,1-3,3.2-2.6,5.3c-0.3,0.2-0.5,0.5-0.8,0.7l-1.8,2.2c-0.1,0.1-0.2,0.2-0.3,0.4l-1.7,0l-0.1-0.1c-0.7-0.7-1.6-1.2-2.6-1.3
			l-2.5-0.4l-0.6-0.1c-1.7-0.4-3.5,0.1-4.7,1.4l-2.2,2.2c-0.9-0.5-1.9-0.8-3-0.7l-2.2,0.2c-0.8,0.1-1.6,0.3-2.3,0.8l-1.4,0.9
			l-5.4-0.1c-0.2-1.5-1-2.8-2.3-3.6l-3.5-2.2l-0.1-0.1c-0.6-1.3-1.9-2.3-3.3-2.7l-2.1-0.5c-0.4-0.4-0.8-0.8-1.3-1.1
			c-1.2-0.7-2.6-0.9-3.9-0.6l-1.5,0.4c-1.4,0.4-2.5,1.3-3.2,2.6l-0.4,0.8l-3.3,2.3c-1.4,1-2.2,2.5-2.1,4.2l0.1,3.3
			c0,0.3,0,0.7,0.1,1c-0.3,0.6-0.5,1.2-0.6,1.8c-0.7,1-1.1,2.2-1.3,3.3l-0.7,0.7c-1.4,0.1-2.7,0.8-3.5,1.9l-2.2,2.8
			c-0.4,0.5-0.7,1.1-0.9,1.7l-0.6,2.1c-0.6,0.6-1.1,1.4-1.3,2.2c-1.5,0.8-2.5,2.2-2.6,3.9l-0.4,3.5c0,0.2,0,0.4,0,0.5l-0.5,0.1h-2.8
			c-0.9-0.5-2-0.7-3.1-0.6l-2.2,0.3c-1-0.3-2.1-0.2-3.2,0.2l-2.4,1c-1.3,0.5-2.3,1.5-2.8,2.8l-1.1,2.8c-0.1,0.4-0.2,0.7-0.3,1.1
			l-0.4,2.5c0,0,0,0.1,0,0.1c-0.3,0.5-0.5,1-0.6,1.5l-0.7,3.2c-0.5,0.4-0.9,0.8-1.2,1.3l-3.2,4.8c-0.1,0.1-0.2,0.2-0.2,0.4
			c-0.8-0.7-1.8-1.2-3-1.3l-0.1,0c0-0.5-0.2-1-0.3-1.4l-1-2.4c-0.6-1.4-1.7-2.5-3.2-2.9l-1.9-0.6l-2.5-2.9c-0.1-0.1-0.2-0.2-0.3-0.3
			c0.3-0.5,0.5-1,0.6-1.6c0.9-0.8,1.5-1.8,1.7-3l0.2-1.5c0.9-0.9,1.4-2.2,1.4-3.5l0-1c0.6,0.2,1.2,0.4,1.9,0.4h2.2
			c0.8,0,1.6-0.2,2.3-0.6l1.8-0.9c1.5-0.8,2.5-2.3,2.6-4c0.5-0.4,1-0.9,1.3-1.5l1-1.9c0.3-0.7,0.5-1.4,0.6-2.1
			c1.4-1,2.2-2.6,2.1-4.4l-0.1-1.6c0.7-0.8,1.1-1.7,1.2-2.8l0-0.5c1.1-0.9,1.8-2.3,1.8-3.8l0-1.9c0-0.5-0.1-1-0.2-1.5
			c0.5-0.8,0.8-1.8,0.8-2.7v-1.3l0.4-1.1c0.6-2,0-4.1-1.7-5.4l-0.8-0.7c-0.1-0.1-0.3-0.2-0.4-0.3l0-0.1c-0.2-1-0.8-1.9-1.5-2.6
			c-0.1-1.4-0.8-2.6-1.9-3.5l-2.4-1.9c-0.2-1-0.7-1.9-1.4-2.6l-1-0.9c-0.1-1.2-0.6-2.4-1.5-3.3l-0.6-0.6c-1.1-1.1-2.5-1.6-4-1.4
			l-1.7,0.2c-0.5,0.1-1,0.2-1.5,0.4l-0.9-0.7c-0.4-0.3-0.8-0.5-1.3-0.6l-0.7-0.2l-3-2.9c-1-1-2.3-1.5-3.7-1.4l-0.5,0l-1-0.6
			l-0.1-0.1c-0.8-1.4-2.2-2.3-3.8-2.5l-2-0.2c-0.9-0.1-1.8,0.1-2.7,0.5l-3.3,1.6c-1.1,0.5-1.9,1.4-2.4,2.4l-0.4,0.9
			c-0.4,0.9-0.5,1.8-0.4,2.7l-1,0.9c-0.9,0.8-1.4,1.9-1.6,3.1l-0.1,0.9l-0.1,0.1c-0.4,0.6-0.6,1.3-0.7,2l-0.1,1.1l-1,1.2
			c-0.1,0.2-0.3,0.4-0.4,0.5l-0.8,1.4L244,217c-0.9,0.4-1.7,1-2.3,1.8L241,220c-0.1,0.2-0.3,0.4-0.4,0.7l-2.1,1.1
			c-0.2,0.1-0.4,0.2-0.6,0.4l-0.3,0.2c-0.9,0.2-1.7,0.7-2.3,1.4l-1.4,1.5c-0.4,0.4-0.7,0.9-1,1.5l-0.7,1.6c-0.2,0.5-0.4,1.1-0.4,1.7
			c-0.3,0.7-0.5,1.5-0.5,2.3l0,0.8c-0.4,0.9-0.6,1.8-0.5,2.8l0.1,0.8l-0.2,1.2l-1.6,2.9l-0.4,0.6c-0.4,0.1-0.8,0.2-1.1,0.4l-1.3,0.6
			c-0.7,0.3-1.3,0.8-1.8,1.4l-1,1.3c-1.2,0.4-2.3,1.3-2.9,2.5l-0.4,0.8c-0.5,1.1-0.7,2.3-0.4,3.4l0.4,1.6c0.2,0.7,0.5,1.3,0.9,1.9
			l0,0.7c0.1,1.5,0.8,2.9,2.1,3.8l3.2,2.3c0.6,0.4,1.3,0.7,2,0.9c0,0.1,0,0.1-0.1,0.2l-1.1,3.2l-2.4,3.9c-0.3,0.6-0.6,1.2-0.7,1.8
			l-0.7,4.1l-0.7,2.4l-0.5,0.8c-0.6,1-0.9,2.2-0.7,3.4l0.4,2.2c0.1,0.6,0.3,1.1,0.5,1.6l-0.1,0.1c-0.7,1.1-0.9,2.4-0.6,3.6l0.1,0.3
			l0,0.3l-0.8-1.1c-0.5-0.7-1.3-1.3-2.1-1.7l-3.8-1.6l-0.7-0.5l-2.8-3.5c-0.4-0.4-0.8-0.8-1.3-1.1c-0.3-0.4-0.6-0.8-0.9-1.1
			l-0.4-0.4c-1.4-1.3-3.5-1.6-5.3-0.9l-1.3,0.6c-0.5,0.2-1,0.6-1.4,0.9c-0.5-0.1-1-0.2-1.4-0.2l-2.7,0.1c-1.1-1-2.6-1.4-4.1-1.1
			l-1.7,0.3c-1.2,0.2-2.2,0.8-3,1.7l-2.8,3.3c-0.7,0.8-1.1,1.8-1.2,2.8l-0.2,2.4l-1,1.5c-1.2-0.8-2.6-1-4-0.7l-4,1
			c-0.4,0.1-0.9,0.3-1.3,0.5l-4.8,2.7l-0.5-1.5c-0.5-1.6-1.8-2.8-3.4-3.3l-1.8-0.5c-0.8-0.2-1.7-0.3-2.5-0.1l-2.1,0.5l-4.4,0.3
			c-0.8-1.6-2.5-2.7-4.5-2.7h-1.2c-0.9,0-1.7,0.2-2.5,0.7l-3.3,1.9l-1,0.4c-0.8-1-1.9-1.6-3.2-1.8l-0.1-2c0-0.3-0.1-0.7-0.2-1
			l-2-7.6c-0.1-0.3-0.2-0.5-0.3-0.8l-1.3-2.8c-0.4-0.8-1-1.5-1.7-2l-2.5-1.7c-1-0.7-2.1-1-3.3-0.9l-1.3,0.1c0,0-0.1,0-0.1-0.1
			l-1.4-1.1c-1.2-0.9-2.8-1.3-4.3-0.9l-3.4,0.8l-1.4-0.6l-0.4-0.9l-0.3-4.9l0.3-1.1c0.4-1.8-0.2-3.6-1.5-4.9l-1.1-1
			c-0.9-0.8-2.1-1.3-3.3-1.3H104l-1.5-0.3l-4.5-4.7c-0.4-2.2-2.2-3.9-4.5-4.1l-1.4-0.1c-1.3-0.1-2.6,0.3-3.7,1.2l-2.4,2
			c-1.2,1.1-1.9,2.7-1.7,4.3l0.2,1.9l-1.1,1.4c-0.8,1-1.2,2.2-1.1,3.4l0.1,1.6l-1.1,0.2c-0.8,0.1-1.5,0.5-2.1,0.9c0-0.1,0-0.1,0-0.2
			l0.2-1.1c0.9-0.6,1.6-1.6,1.9-2.6L82,256c0.1-0.3,0.1-0.5,0.2-0.8l0.3-2.8c0.7-1,0.9-2.2,0.8-3.4l-0.2-1.2
			c-0.1-0.5-0.2-0.9-0.4-1.4c-0.1-0.6-0.2-1.1-0.5-1.6c-0.1-1-0.4-1.9-0.9-2.7l-0.4-0.6c-0.5-0.6-1.1-1.2-1.8-1.5
			c-0.5-0.6-1.1-1.1-1.8-1.5l-0.8-0.4l-0.1-0.7c-0.1-0.9-0.4-1.7-0.9-2.4l-0.2-0.9c0-0.1,0-0.1,0.1-0.2l0.4-1.1
			c1.1-1.1,1.7-2.6,1.5-4.2l-0.1-0.4c-0.1-0.9-0.4-1.7-0.9-2.3c-0.1-0.1-0.1-0.2-0.2-0.3l-1.5-2.4c0-0.3,0-0.5-0.1-0.8
			c0.6-0.8,1-1.8,1.1-2.8l0-0.3l1.2-3.3c0.2-0.5,0.3-1.1,0.3-1.7v-1.7c0-1.3-0.5-2.5-1.3-3.4l-1.5-1.6c-0.9-0.9-2-1.5-3.3-1.6
			c-0.4-0.2-0.8-0.4-1.3-0.5l-1.8-0.5c-0.1-0.1-0.2-0.1-0.2-0.2c-1.1-0.8-2.6-1.1-3.9-0.9l-0.8,0.2c-0.6,0.1-1.3,0.4-1.8,0.7
			l-1.1,0.3c-0.7,0.2-1.4,0.5-2,1l-2.3,1.9l-0.1,0c-0.7,0.3-1.4,0.7-1.9,1.2l-0.9,0.9c-1.3,0.5-2.4,1.6-2.9,3l0,0.1l-0.7,0.6
			c-0.1,0-0.2,0-0.3,0.1l-0.3-0.3c-0.8-0.7-1.9-1.1-2.9-1.2l-1.9-0.1c-0.3,0-0.7,0-1,0c-0.2-0.3-0.4-0.5-0.6-0.7l-1.4-1.4
			c-0.8-0.8-1.8-1.3-2.9-1.4l-3.3-0.4l-0.7-0.8c-0.5-0.6-1.2-1-1.9-1.3l-1-0.4c-0.1-0.2-0.3-0.3-0.4-0.5l-0.4-0.5
			c-0.1-0.3-0.1-0.5-0.2-0.8l-0.3-0.9c-0.4-1-1-1.8-1.8-2.3l-0.5-0.6l-0.4-1.5l-0.1-1.3c0,0,0,0,0-0.1c0.3-1.1,0.1-2.3-0.5-3.4
			l-0.3-0.6L26,193c-0.3-1-0.8-1.9-1.6-2.6l-0.9-0.7c-0.4-0.9-1-1.6-1.8-2.1c0.5-0.8,0.8-1.7,0.8-2.7v-1.3c0-1-0.3-1.9-0.8-2.7
			l0.1-1.5c0-1.3-0.4-2.6-1.3-3.5c-0.4-0.7-1-1.3-1.8-1.8l-1.3-0.8c-0.4-0.2-0.8-0.4-1.2-0.5l-1.6-0.4c-0.1,0-0.3-0.1-0.4-0.1
			c-0.2-0.3-0.5-0.6-0.8-0.8l-0.4-0.3c-0.2-0.5-0.5-1-0.9-1.4l0-0.1c-0.1-0.7-0.3-1.5-0.7-2.2l-0.6-1c0-0.6-0.2-1.1-0.4-1.6
			l-0.8-1.7l-0.2-1.2c0.6-1.6,0.4-3.4-0.7-4.8l-0.5-0.7c-1.1-1.4-2.8-2.2-4.6-2l-2.2,0.3c-0.9,0.1-1.8,0.5-2.5,1.1l-3.3,2.6
			c-0.4,0.4-0.8,0.8-1.1,1.3l-1.7,2.7l-1.6,1.9c-0.5,0.6-0.9,1.3-1,2l-0.4,1.5l-1.1,1.1c-0.3,0.3-0.5,0.6-0.7,0.9l-3.1,5.2
			c-0.6,1-0.8,2.1-0.7,3.2l0.1,1c-0.2,0.5-0.4,1.1-0.5,1.6l-0.2,2.3l-2.4,2.2c-0.5,0.5-0.9,1-1.2,1.7l-4.1,9.2
			c-0.4,0.8-0.5,1.7-0.4,2.7l0.9,7.3c0.2,1.6,1.2,3,2.6,3.8l2.4,1.3l2.5,1.8c0.6,0.4,1.2,0.7,1.9,0.8l-0.2,0.4
			c-0.2,0.5-0.4,1.1-0.4,1.7l-0.1,1.8c0,0.3,0,0.5,0,0.8l0.2,2.3c0,0.3,0.1,0.6,0.2,0.9l0.8,2.8c0.2,0.8,0.6,1.5,1.2,2.1l0.9,0.9
			l0.2,0.5l-0.7,0c-0.8-0.4-1.7-0.6-2.6-0.5l-0.6,0.1c-1.1,0.1-2.1,0.6-2.9,1.3c-1.3,0.4-2.3,1.3-2.9,2.6l-0.7,1.3l-1,1
			c-0.6,0.6-1,1.3-1.2,2c-0.5,0.7-0.8,1.5-0.9,2.4l-0.2,1.5c-0.1,1.2,0.2,2.5,0.9,3.5l0.1,0.6c0.2,1,0.7,1.8,1.4,2.5l1,1
			c0.4,0.4,0.9,0.8,1.5,1c0.2,0.9,0.5,1.7,1.1,2.4c-0.7,0-1.3,0.1-1.9,0.3c-1.1,0-2.2,0.5-3.1,1.2l-0.1,0.1
			c-0.4,0.2-0.9,0.4-1.2,0.7l-0.8,0.6c-0.6,0.5-1.1,1-1.5,1.7l-1.7,3.3c-0.3,0.6-0.5,1.2-0.6,1.9l-0.1,1.3l-2,6.2
			c-0.2,0.6-0.3,1.2-0.2,1.9c-0.3,0.7-0.5,1.4-0.4,2.1l0.1,4.7l-0.4,0.8c-0.2,0.4-0.3,0.8-0.4,1.2c-0.3,0.5-0.6,1-0.7,1.5l-0.7,0.9
			c-0.5,0.7-0.9,1.4-1,2.2c-0.2,0.3-0.4,0.7-0.5,1c-0.4,0.4-0.8,0.9-1,1.5c-0.7,1.5-0.6,3.3,0.4,4.8c-0.6,1.3-0.6,2.9,0,4.2l0.5,1.1
			c0.4,0.9,1.2,1.7,2,2.2c0.3,0.3,0.7,0.5,1,0.7l1.3,0.7c1.3,0.7,2.7,0.7,4.1,0.3l1.5-0.6c0.3-0.1,0.6-0.3,0.9-0.5
			c1.3-0.2,2.5-1,3.3-2.1c0.1,0,0.2,0.1,0.3,0.1c1.3,0.6,2.8,0.5,4.1-0.1l0.6,0.2c0.4,0.1,0.8,0.2,1.2,0.3c1.1,0.6,2.4,0.8,3.6,0.5
			l0.6-0.2c1.3-0.3,2.4-1.1,3.1-2.2c0.6,0.2,1.3,0.4,1.9,0.3c0.8,0,1.5-0.2,2.1-0.5c2,0.3,3.9-0.6,5-2.2l0.8-1.2
			c0.1-0.1,0.2-0.3,0.2-0.4c0.4-0.3,0.8-0.6,1.2-1l0.3,0.2c1.4,0.6,3,0.5,4.3-0.1c0.7,1.1,1.8,1.9,3.1,2.3l1.3,0.3
			c1.7,0.4,3.4-0.1,4.6-1.2c0.1,0.1,0.2,0.2,0.3,0.3l0.8,0.6c1.4,1.1,3.2,1.3,4.8,0.8c0,0,0,0,0,0l2.4,1.1c1.3,0.6,2.8,0.6,4.1,0
			c0.9-0.4,1.6-1,2.1-1.8c0,0,0,0,0,0c1.1,0,2.3-0.4,3.2-1.1c0.6-0.5,1-1,1.3-1.7c0.3-0.2,0.6-0.4,0.9-0.6c0.2,0,0.4,0.1,0.6,0.1
			c2,0.2,4-0.8,5-2.5l0.8-1.4l2.4-3l2-0.5c1.3-0.3,2.3-1.1,3-2.2l0.5-0.9l0.1,0.1l0,0.3c0,0.2,0,0.5,0,0.7l0.1,1.4
			c0.1,1.5,0.9,2.8,2.1,3.6c0,0.4,0.1,0.9,0.2,1.3l0.6,2.2c0.2,0.7,0.6,1.4,1.1,1.9l0.6,0.7c-0.3,1.1-0.1,2.3,0.4,3.3l-0.2,0.2
			c-0.6,0.4-1,0.9-1.4,1.5l-1,1.6c-0.8,1.3-1,2.8-0.5,4.2c0.5,1.4,1.5,2.5,2.9,3.1l0.2,0.4c0.5,0.9,1.3,1.6,2.2,2l1.8,0.8l0.1,1.7
			l-0.4,0.9l-2.8,1.6c-1.8,1.1-2.8,3.2-2.4,5.3l0,0.1c-0.6,0.4-1.1,0.8-1.5,1.4l-1,1.4c-1,1.5-1.2,3.5-0.3,5.2
			c0.6,1.1,1.5,1.9,2.6,2.3l0.6,1.6l-0.5,3c-0.3,1.4,0.1,2.9,1,4l2.9,3.6c0.9,1.2,2.4,1.9,3.9,1.9h2l2,1.6l1.8,2.2l0.5,3.5l-1,6
			l-0.6,2.8c-0.4,1.7,0.2,3.4,1.4,4.6l1.4,1.4c1,1,2.4,1.5,3.9,1.4c1.4-0.1,2.8-0.8,3.6-2l0.7-1h1.2c0.9,0,1.9-0.3,2.7-0.8l5.5,4.4
			c0.9,0.7,2.1,1.1,3.1,1.1l0.1,0.1c0.2,0.2,0.3,0.3,0.5,0.4l4,3c1.3,0.9,2.9,1.2,4.3,0.8c0,0,0.1,0,0.1,0.1l3.5,1.6
			c1.5,0.7,3.2,0.6,4.5-0.3c-0.4,1.3-0.2,2.6,0.4,3.8l1,1.8c0.8,1.5,2.4,2.5,4.1,2.6l0.1,0l0.1,0.7c0.2,1.3,1,2.5,2.1,3.3l3.8,2.6
			c0.7,0.5,1.4,0.7,2.2,0.8l0,0.1c-0.1,1.6,0.5,3.2,1.8,4.3l2.2,1.9c2,1.7,5.1,1.5,6.9-0.4l2.2-2.3l0.1,0c1.6,0.1,3.1-0.6,4.1-1.8
			l3.9-4.6c0.5-0.5,0.8-1.2,1-1.8l1.3-4.5c0,0,0-0.1,0-0.1c0.3-0.4,0.6-0.9,0.8-1.4l0.5-1.2c0.4-0.9,0.4-1.9,0.2-2.9l0.4-0.5
			c1.1,0,2.1-0.4,2.9-1.1h0.7c0.1,0,0.2,0,0.3,0c0,0,0.1,0.1,0.1,0.1l2.1,1.4c1.9,1.3,4.5,1.1,6.2-0.5l2.7-2.5
			c1-0.9,1.6-2.2,1.6-3.5l0-0.5c0-0.1,0-0.1,0-0.2l0-4.8c0-0.4,0-0.8-0.1-1.2l-1.1-4.7l0.2-0.7c0-0.2,0.1-0.3,0.1-0.5
			c0.9,0.1,1.9-0.1,2.8-0.6l1-0.6c1.3-0.7,2.2-1.9,2.5-3.2l0.4-0.2l0.2,0.1c2.3,1.1,4.9,0.3,6.3-1.8l0.9-1.4h0.1
			c1.2,0,2.4-0.4,3.3-1.2l0.6-0.5h0.6c1.1,0,2.2-0.4,3.1-1.1l-0.3,4c0,0.1,0,0.2,0,0.3l0,3c0,0.9,0.2,1.7,0.6,2.4l1.6,2.9
			c0.3,0.6,0.8,1.1,1.3,1.5l4.1,3.3c1.4,1.1,3.2,1.4,4.8,0.8c0.9,1.8,2.7,2.9,4.6,2.8c0.1,0.4,0.3,0.8,0.5,1.2
			c0.8,1.2,2,2.1,3.4,2.3l2.2,0.4l1.9,1.9c0.9,0.8,2,1.3,3.1,1.4c0.5,0.8,1.2,1.4,2,1.8l3.9,1.9l0.5,1.2c1.1,2.5,4,3.6,6.5,2.6
			l0.5-0.2l0.7,0.2l1.5,1.4c0.9,0.9,2.2,1.4,3.5,1.4h1l-0.8,2.5c-0.4,1.1-0.3,2.4,0.2,3.5l0.4,0.8l0.2,6.1l-0.6,1.5
			c-0.7,1.8-0.3,3.9,1.1,5.3l4.6,4.8c1.2,1.3,3,1.8,4.7,1.4l1.9-0.5l2.3,1l1.6,1.4c-0.1,0.9,0,1.8,0.4,2.6l0.9,2.1
			c-0.2,0.9-0.2,1.8,0.1,2.7l1.3,3.8c-0.2,0.6-0.3,1.2-0.2,1.8l0.3,7.3c0.1,1.9,1.2,3.6,3,4.4l0.6,3.3c0.3,1.5,1.1,2.7,2.4,3.5
			l1.6,0.9l1,1c0,0,0,0,0,0l-0.5,1.1c-0.3,0.7-0.5,1.4-0.4,2.2l0.2,5.8c0,0.7,0.2,1.4,0.5,2.1l1.9,3.6l0.2,3.5l-0.1,0.8l-0.4,0.5
			l-4.7,1.9c-0.7,0.3-1.4,0.8-1.9,1.4l-1.5,1.7c-0.7,0.8-1.1,1.8-1.2,2.9l-0.2,3c-0.1,1.2,0.2,2.3,0.9,3.3l1.1,1.5
			c-0.4,0.7-0.7,1.4-0.7,2.2l-0.1,0.8l-1.4,1.5c-0.3,0.4-0.6,0.8-0.9,1.3l-1.1,2.5l-2.4,2.6c-1,1-1.4,2.4-1.3,3.8l-0.4,0.6
			c-1.2,1.7-1.2,4,0,5.7l0.8,1.2l0.4,2.7c0.1,0.7,0.4,1.5,0.9,2.1l2.1,3c0.6,0.9,1.5,1.5,2.5,1.9l0.3,0.6c0.9,1.7,2.8,2.8,4.8,2.6
			l3-0.2c0.2,0,0.4,0,0.6-0.1l3.4-0.6c0.9-0.2,1.7-0.5,2.3-1.1l1.2-1l0.4,0l3,2.1c1.3,0.9,2.9,1.2,4.4,0.7c0.6-0.2,1.2-0.5,1.6-0.9
			l0.4,0.2c0.3,0.1,0.6,0.2,0.8,0.3l3,0.6c0.5,0.1,1.1,0.1,1.6,0.1l0.4,0l1.2,4c0.5,1.6,1.8,2.9,3.4,3.4c0.1,1.1,0.5,2.1,1.2,3
			c-0.6,1.5-0.5,3.2,0.3,4.6l2.1,3.4c0.8,1.3,2.1,2.1,3.6,2.3l3,0.4l2.9,0.8l2.3,2.2l1.2,1.2l0.2,0.7v1.4c0,0.5,0.1,1,0.2,1.4
			c-0.8,1.8-0.4,4,0.9,5.4l1.8,1.9c0.9,0.9,2,1.5,3.3,1.6l1.2,0.8c1,0.7,2.3,1,3.5,0.8l1.5-0.2c1.1-0.2,2.1-0.7,2.9-1.5l1.6-1.7
			c0.4,0.2,0.8,0.3,1.3,0.3l2.3,0.3l0,0.4l-1,2.2c-0.8,1.9-0.4,4.1,1,5.5l1,1l0.5,1.3c0.4,1,1.1,1.9,2,2.5l1.2,0.7
			c1.2,0.8,2.7,1,4.1,0.6l0.8-0.2l1.6,0.9c0.8,0.4,1.6,0.7,2.5,0.7h0.1c1,0.8,2.2,1.2,3.4,1.2l0.5,0c0.7,0.5,1.4,0.8,2.3,0.9
			l0.8,0.1l0.9,0.8c0.9,0.8,2.1,1.2,3.2,1.2c0.9,0,1.9-0.3,2.7-0.8l2.7-1.7h0.5c0.2,0,0.5,0,0.7-0.1l0.7,0.7
			c1.1,1.2,2.8,1.7,4.4,1.4c1.6-0.3,3-1.3,3.7-2.8l1.1-2.3l0.7-0.4c1.4-0.8,2.3-2.2,2.4-3.7l0.3-2.7l1-1c0.9-0.9,1.4-2,1.4-3.2
			l0-0.2l0.7-0.8c0.7-0.8,1-1.7,1.1-2.7c0.1,0,0.2-0.1,0.3-0.1l2-1.1c0.4-0.2,0.7-0.5,1-0.8l0.8-0.8c1.3-1.3,1.8-3.2,1.3-5l0.4-1.4
			c0.3-1.3,0.1-2.7-0.5-3.8l-1.5-2.6c-0.2-0.3-0.4-0.6-0.6-0.9c-0.1-0.3-0.3-0.6-0.5-0.8c-0.1-0.2-0.3-0.5-0.4-0.7l-0.7-1.5
			c-0.4-0.9-1.1-1.6-2-2.1l-0.4-0.3c-0.1-0.5-0.3-1-0.6-1.5c0.5-0.7,0.8-1.6,0.9-2.5c0.5-0.8,0.7-1.6,0.8-2.5l1.2-1.1
			c0.5-0.5,0.9-1.1,1.2-1.8c1-0.6,1.7-1.6,2-2.8l0.3-1.2c0.2-0.5,0.2-1.1,0.2-1.6l0,0c0.9-0.9,1.5-2,1.6-3.2
			c0.1-0.2,0.2-0.4,0.3-0.7c0.5-1.3,0.4-2.8-0.3-4.1l-1.8-3.4l-0.1-1.8l1.6-1.9c1-1.1,1.3-2.7,1.1-4.1l-0.3-1.5l0.4-0.8
			c0.6-0.5,1-1.1,1.3-1.8l1.3-2.9c0.2-0.4,0.3-0.7,0.3-1.1c0.5,0.2,1,0.2,1.5,0.2h0.2l0.8,0.7c0.5,1.1,1.3,2,2.4,2.5l0.7,0.3
			c1.7,0.8,3.6,0.6,5.1-0.5l1.1-0.9c1.2-0.9,1.9-2.2,2-3.7c0.3-0.3,0.5-0.6,0.8-1l1.6-2.7l3.8-3.8l2.4-1.4c1.1-0.6,2-1.7,2.3-2.9
			l0.3-1c0.3-1,0.3-2.1-0.1-3.1l3.6-2.9c1.3-1,2-2.6,1.9-4.2l-0.5-7.8c-0.1-1-0.4-1.9-1-2.7l-0.8-1c-0.9-1.2-2.4-2-4-2h-1.2
			c-0.3,0-0.7,0-1,0.1c-0.3-0.8-0.8-1.4-1.5-1.9l-1.9-1.5c-0.6-0.5-1.3-0.8-2-0.9l-1.4-1.2c0.8-0.7,1.3-1.6,1.5-2.6
			c0-0.2,0.1-0.5,0.1-0.7c0.7-0.5,1.2-1.3,1.5-2.1l0.7-1.9c0.3-0.7,0.4-1.4,0.3-2.1c0.9-0.6,1.6-1.5,1.9-2.5l1-2.9
			c0.3-1,0.3-2.1,0-3.2l-0.6-1.8c-0.3-0.8-0.7-1.5-1.3-2.1l0.4-0.4c0.3-0.3,0.5-0.6,0.7-0.9l1,0.2c1.3,0.3,2.7,0,3.8-0.7l1.8-1.2
			c1.8-1.2,2.6-3.4,2.1-5.4l1.5-1.4c1.1-1,1.7-2.5,1.6-4c0-0.4-0.1-0.8-0.2-1.1l3.8-2.9c1.1-0.8,1.8-2,1.9-3.4l0-0.1l4.2-3.8
			c0.4-0.4,0.8-0.8,1-1.3l0.4-0.7c1.7-0.2,3.2-1.2,4-2.7l1.5-0.8c0.2-0.1,0.4-0.2,0.6-0.4l0.1,0.1c0.1,0.1,0.3,0.2,0.5,0.3l1.6,0.9
			c0.1,0.6,0.4,1.2,0.7,1.7l4.1,6.1c0.6,0.8,1.3,1.5,2.3,1.8l1.5,0.6c0.3,0.3,0.6,0.6,1,0.9l2.2,1.4c0.6,0.4,1.2,0.6,1.9,0.7
			l0.4,0.1l0,0.6c-0.9,1.7-0.7,3.7,0.5,5.3l1.3,1.7c0.7,0.9,1.7,1.6,2.8,1.8c0.3,0.2,0.7,0.4,1.1,0.6l2,0.8c1.4,0.6,2.9,0.5,4.2-0.2
			c0.6-0.3,1.1-0.8,1.6-1.3l2.1-0.8c0.9-0.4,1.7-1,2.3-1.8c0.2,0,0.4-0.1,0.5-0.2l1.3-0.5c1-0.4,1.8-1,2.4-1.9
			c0.5-0.2,0.9-0.5,1.3-0.9l2.6-2.6c1-0.9,1.5-2.2,1.5-3.5c0.4-0.2,0.8-0.4,1.1-0.6c1.2-0.9,1.9-2.2,2-3.7l0.7-0.5l1.7,0.2
			c1.3,0.2,2.6-0.2,3.7-0.9c0.3,0.1,0.7,0.3,1.1,0.3l1.3,0.2c1.7,0.3,3.5-0.3,4.6-1.6l2.2-2.4c0.4-0.4,0.7-1,0.9-1.5l1.4-3.4
			c0.5-1.2,0.5-2.5,0-3.6l1.1-0.9l0.1,0c1.2-0.2,2.2-0.8,3-1.7l3.4-4c0.2-0.3,0.4-0.5,0.6-0.8l0.4-0.8c0.7-0.5,1.4-1,1.8-1.3
			c0.2,0,0.5-0.1,0.8-0.1c1.7-0.2,3.1-1.3,3.9-2.8l3.7-7.8c0.4-0.7,0.5-1.6,0.5-2.4l0-0.6l1.2-0.8c0.8-0.2,1.6-0.6,2.2-1.1l1.8-1.6
			c0.8-0.7,1.3-1.6,1.6-2.6c0,0,0,0,0,0l0.9,0.1c1.9,0.2,3.6-0.7,4.6-2.3c0.9-1.4,1.1-3.2,0.4-4.7l2.2-2.1c0.9-0.8,1.5-2,1.6-3.2
			c0.5-0.1,1-0.4,1.5-0.7l0.6,1.2l0,0.4c-0.2,1.9,0.8,3.8,2.5,4.8l0.3,0.1c0.5,1.1,1.3,2,2.4,2.5c0.5,1.5,1.7,2.7,3.4,3.2l0.4,0.7
			c0.5,0.9,1.3,1.6,2.2,2.1l5.1,2.4c1.4,0.6,2.9,0.6,4.3,0l3.8-1.8c1.7-0.8,2.8-2.6,2.8-4.5v-0.7c0.7-0.8,1-1.9,1-3l0.1-4.2
			c0-0.7-0.1-1.4-0.4-2.1c0.1-0.3,0.1-0.5,0.1-0.8c0-1,0.1-2.2,0.1-3c0.2-0.2,0.4-0.4,0.6-0.6c1.3-1.3,1.8-3.2,1.2-5l-1.2-3.8
			l0.2-0.1l1-0.2c1.9-0.3,3.4-1.7,3.9-3.5l0.5-1.7c0.4-1.4,0.1-3-0.7-4.2l0.5-3.6c0.8-0.1,1.6-0.3,2.3-0.8c1.2-0.8,2-2,2.2-3.4
			l0.4-2.2l2.3-3.2c1.3-1.9,1.2-4.4-0.2-6.1l-3.9-4.6c-0.1-1.5-0.9-2.9-2.1-3.7l-0.2-0.7c-0.1-0.6-0.4-1.2-0.8-1.7l-1.1-1.6
			c-0.7-1.1-1.9-1.8-3.1-2l0-0.6c0.1-1.3-0.4-2.6-1.3-3.6l-2.6-2.8c-0.7-0.7-1.5-1.2-2.4-1.5l-0.7-1.3c-0.7-1.3-1.9-2.2-3.2-2.5
			c-0.3-0.3-0.6-0.5-1-0.8l-1-0.6c-0.6-0.4-1.2-0.6-1.9-0.7c-0.6-0.8-1.5-1.5-2.6-1.8l-0.6-0.2c-1.2-0.3-2.4-0.2-3.5,0.3l-1.1,0.5
			l-0.9-0.1l-0.4-0.5c-0.6-0.6-1.4-1.1-2.2-1.4l-0.5-0.1l-1.6-2.5c-0.8-1.2-2.1-2-3.5-2.2l-0.1-0.1c-0.4-0.3-0.8-0.5-1.2-0.6l-2.8-1
			c-0.5-0.2-1-0.3-1.5-0.3c-0.4-0.2-0.9-0.4-1.3-0.5l-0.2-0.1c0.2-0.2,0.4-0.5,0.5-0.7c0.3-0.4,1.2-1.3,2-2.1l1.2-0.6l3.2,0.5
			c0.9,0.1,1.7,0,2.6-0.3l0.1,0c0.5,0.1,1,0.1,1.4,0.1l1.6-0.2c2.2-0.2,3.9-1.8,4.4-3.9c0.4-1.8-0.3-3.7-1.7-4.9l0-1
			c0.4-0.6,0.6-1.2,0.8-1.9l0.2-1c1.6-0.5,2.9-1.8,3.3-3.4l0.4-1.4c0.3-0.9,0.2-1.9,0-2.8l-0.1-0.3l0.2-0.2c0.8-0.8,1.3-1.8,1.5-2.8
			c1-0.9,1.6-2.3,1.6-3.6v-3.8c0-0.9-0.3-1.9-0.8-2.7c-0.1-0.2-0.2-0.4-0.4-0.6c0-0.6-0.1-1.6-0.2-2.4c0-0.4-0.1-0.8-0.2-1.2l1-0.8
			c1.7,0.1,3.3-0.6,4.4-1.9l0.6-0.8l0.8-0.4c1.9-0.8,3-2.7,2.9-4.7c0.7-1.1,1-2.4,0.8-3.7l-0.3-1.8c-0.4-2.3-2.3-4-4.7-4.1l-0.6,0
			l-1.7-0.9c-0.7-1.1-1.7-1.9-3-2.3c-0.3-0.1-0.9-0.4-1.4-0.6c-1.2-0.6-2.5-0.7-3.8-0.3c0-0.1-0.1-0.2-0.1-0.2
			c0.1-0.3,0.3-0.7,0.3-1l0.3-1.6l0.6-1.2c0.8-1.5,0.8-3.2,0-4.7l-1.2-2.2c-0.6-1-1.5-1.9-2.6-2.3l-0.8-0.3c0.5-1.1,0.6-2.4,0.3-3.5
			c-0.4-1.3-1.3-2.4-2.5-3l-0.3-0.2l0.4-0.5c0.6-0.8,0.9-1.8,0.9-2.8v-2.9c1.2-1.1,1.8-2.7,1.6-4.4l-0.1-1l0.3-0.5
			c1-1.7,1-3.7,0-5.3c0.7-0.4,1.3-1,1.7-1.8l0.5-0.9l0,0c0.2,0,0.5-0.1,0.7-0.1l2.2-0.6c0.4-0.1,0.8-0.3,1.2-0.5l0.9-0.5
			c0.9-0.1,1.7-0.3,2.4-0.8l2.3-1.5c0.6-0.4,1.1-0.9,1.5-1.4l1.7-2.6l1-0.5c1.6-0.9,2.6-2.7,2.6-4.6l0-1.1c1-0.3,1.8-0.9,2.5-1.8
			l1.3-1.7l1.9-1.1c1.1-0.6,2-1.7,2.3-2.9l1.2-4.1c0.3-0.8,0.3-1.7,0.1-2.6l-0.5-2.4l0.5,0.5c1.4,1.2,3.3,1.6,5,1l1.4-0.5l0.4-0.1
			c0.8-0.1,1.6-0.4,2.2-0.8l2-1.4c0.6-0.4,1.1-0.9,1.5-1.6l2.9-4.9c0.4-0.6,0.6-1.2,0.7-1.9l0.1,0.1c1.4,0.8,3,0.8,4.5,0.2l2.3-1
			c1.7-0.8,2.9-2.5,2.9-4.3c0.8-1.2,1-2.7,0.6-4c0.4-0.1,0.8-0.2,1.2-0.3l3.3-1.4c1.2-0.5,2.2-1.5,2.7-2.8l1.1-2.7l0.3-0.2
			c1.6-1,2.6-2.9,2.3-4.8L606,88v-2.5l1.3-2.5c0.4-0.7,0.6-1.5,0.6-2.3l0.1-7.4c0-0.9-0.2-1.8-0.7-2.6l-0.4-0.7l0.3-2.2l1.4-1.8
			c0.9-1.2,1.2-2.7,0.9-4.1l-0.6-2.9l1.1-1.9c0.2-0.4,0.4-0.8,0.5-1.3l0.9-3.8c0-0.2,0.1-0.4,0.1-0.6c0.5-0.4,1-0.9,1.4-1.4l0.9-1.4
			c0.6-0.9,0.8-1.9,0.8-2.9c1.8-0.3,3.4-1.5,4-3.4l0.2-0.5l0.4-0.3c1.6,0,3-0.8,3.9-2l2.1-2.8c0.5-0.7,0.9-1.6,1-2.5l0.1-0.7
			l0.7-0.6c1-1,1.6-2.4,1.5-3.8l-0.2-4.4l1.4-2.4c0.4-0.6,0.6-1.3,0.7-2l0.2-2l1.7-4.5l0.2-0.1c0.5-0.4,1-1,1.3-1.6l3.9-7.2
			c0.2-0.4,0.4-0.9,0.5-1.4l0.9-4.3l1.7-4.4l1.6-2.2c0.6-0.8,0.9-1.7,1-2.7l0.1-2.3l1.9-1.8c0.9-0.9,1.5-2,1.6-3.3l0.2-2.4l1.6-1.2
			C650.3-22.3,650.9-24.7,650.1-26.7z M634.9-18.1c-0.9,0.9-1.5,2.1-1.6,3.3l-0.2,2.8l-1.2,1.6c-0.3,0.4-0.5,0.8-0.7,1.2l-2.1,5.5
			c-0.1,0.2-0.2,0.5-0.2,0.8l-0.8,4l-3,5.7L624.8,7c-0.7,0.6-1.2,1.3-1.6,2.1l-2.4,6.3c-0.2,0.4-0.3,0.8-0.3,1.2l-0.2,1.5l-1.6,2.7
			c-0.5,0.8-0.7,1.8-0.7,2.8l0.1,3.6l-0.4,0.4c-0.9,0.8-1.4,1.9-1.5,3.1l-0.1,1c-0.5,0.1-1,0.4-1.5,0.7l-3.1,2.1
			c-0.1,0.1-0.1,0.1-0.2,0.2c0,0,0,0,0,0l-2.6,0.3c-1.4,0.2-2.6,0.9-3.4,2c-1.6,0.9-2.7,2.5-2.7,4.4v1.8c0,0.5,0.1,1,0.2,1.5
			c-0.4,0.4-0.8,0.9-1,1.5l-1,2.2c-0.6,1.4-0.6,2.9,0,4.2l-0.1,0.3l-1.7,3c-0.6,1.1-0.8,2.3-0.5,3.5l0.5,2.5l-0.8,1
			c-0.5,0.7-0.9,1.5-1,2.4l-0.6,5.2c-0.1,1.1,0.1,2.2,0.7,3.2l0.6,1l-0.1,4.8l-1.3,2.5c-0.4,0.7-0.6,1.5-0.6,2.4v4
			c0,0.2,0,0.4,0,0.6l0.5,4.2c-0.4,0.5-0.8,1-1,1.6l-0.9,2.3l-0.3,0.1l-1.5-0.1c-1.4-0.1-2.8,0.4-3.8,1.4c-1.4,0.1-2.8,0.7-3.7,1.8
			L584,102c-0.8,0.9-1.1,2.1-1.1,3.3l-1,0.3h-0.6c-1.1,0-2.2,0.4-3.1,1.1l-1.1,0.9c-1.2,0.9-1.9,2.4-1.9,3.9v3.1c0,0.1,0,0.1,0,0.2
			l-0.4,0.7c-0.1-0.1-0.2-0.1-0.3-0.2c-0.9-1.1-2.2-1.9-3.7-2l-1.8-0.1c-2-0.1-3.8,0.9-4.7,2.6l-0.4,0.7l-2.7,1.9
			c-0.9,0.7-1.6,1.6-1.9,2.7l-0.7,2.4c-0.2,0.8-0.3,1.7-0.1,2.5l0.7,3.2l-0.3,0.9l-1.1,0.6c-0.6,0.3-1.2,0.8-1.6,1.4l-0.7,0.9
			l-1.7,0.3c-1.5,0.2-2.9,1.2-3.6,2.6l-0.7,1.2c-0.7,1.3-0.8,2.9-0.2,4.3c-0.2,0.2-0.4,0.5-0.6,0.7l-1.8,2.7
			c-0.8,0.1-1.5,0.3-2.1,0.7l-1.7,1l-1.2,0.4l-1.3,0.2c-0.4,0.1-0.9,0.2-1.3,0.3l-1,0.4c-1,0.4-1.9,1.2-2.4,2.1l-0.6,1l-0.5,0.2
			c-1.4,0.4-2.6,1.4-3.2,2.7l-1.2,2.6c-0.4,0.8-0.5,1.7-0.4,2.6l0.2,1.5c0.1,0.8,0.4,1.6,0.8,2.2c-0.2,0.7-0.2,1.4-0.1,2.1l0,0.1
			l-0.5,0.5c-1.1,1-1.8,2.3-1.8,3.8c0,1.1,0.3,2.1,0.9,2.9l-1.4,2.1c-0.3,0.5-0.6,1-0.7,1.6c-1.3,0.7-2.2,1.8-2.6,3.2
			c-0.4,1.5,0,3.2,1,4.4l0.7,0.9c1,1.2,2.4,1.8,3.9,1.8c0.1,0.5,0.2,1.1,0.4,1.9c0.4,1.6,1.5,2.9,3,3.5l0.1,0
			c-0.1,0.2-0.3,0.3-0.4,0.5l-0.8,1.3c-0.9,1.4-1,3.3-0.3,4.8l1.5,3.2c0.5,1.1,1.4,1.9,2.5,2.4c0.4,0.7,1,1.3,1.7,1.7l3.1,1.9
			c1.2,0.8,2.7,0.9,4.1,0.5c0.2,0.2,0.5,0.3,0.8,0.5l0.9,0.5c-0.3,0.2-0.7,0.4-1,0.6l-2.2,1.8l-1,0.2c-1.9,0.3-3.4,1.7-3.9,3.5
			l-0.5,1.7c-0.3,1.1-0.2,2.3,0.2,3.4l1,2.3c0.1,1.1,0.2,2.3,0.2,2.8c0.1,0.4,0.2,1.2,0.9,2.6c-0.8,0.9-1.3,2-1.4,3.2l-0.8,0.8
			c-1,0.9-1.5,2.2-1.5,3.6v0.9c0,0.4,0.1,0.8,0.2,1.2l-0.9,0.7c-1,0.8-1.6,1.8-1.8,3l-0.4,1.9l-0.2,0.3c-0.6,0.9-1,1.9-1,3l0,1
			c-1.3-0.5-2.7-0.4-4,0.2l-4,2c-0.5,0.2-0.9,0.5-1.2,0.9c-1,1-1.8,1.8-2.4,2.4c-0.8,0.2-1.5,0.6-2.1,1.2l-1.1,1
			c-1.3,1.2-1.9,3-1.5,4.7l-1.2,3.1c-0.5,1.3-0.4,2.7,0.1,3.9l0.4,0.9c0.9,2.1,3.2,3.2,5.4,2.9l1.8-0.3l0.4,0.1
			c1,1.2,2.6,1.9,4.2,1.8l1.1-0.1c0.1,0,0.3,0,0.4,0l0.8,0.5c0.3,0.2,0.7,0.4,1.1,0.6l1.5,2.3c0.7,1,1.7,1.7,2.8,2.1l0.9,0.3
			l0.8,0.9c0.8,0.9,2,1.4,3.2,1.5l3.9,0.3c0.3,0.2,0.7,0.4,1,0.5l2,0.8c0.3,0.1,0.6,0.2,0.8,0.3c0.7,1.2,1.9,2.2,3.3,2.5l0.5,0.1
			l0.2,0.5c0.5,1,1.3,1.7,2.3,2.2c0,0.2,0,0.5,0,0.7l0.2,1.4c0.2,1.5,1,2.9,2.3,3.7l3.2,2c0.1,0.1,0.2,0.1,0.4,0.2
			c0,1.4,0.5,2.8,1.7,3.8l0.8,0.7c0.3,0.3,0.7,0.5,1,0.7c0.1,0.1,0.1,0.2,0.2,0.3l2.5,3l-0.5,0.7h-1.3c-1,0-2,0.3-2.9,0.9l-1.6,1.1
			c-1,0.7-1.8,1.8-2,3.1c-0.4,0.4-0.7,0.9-0.8,1.5c-0.5,1.4-0.4,2.9,0.4,4.2l1.1,1.9c0.1,0.2,0.3,0.4,0.4,0.6
			c-0.7,0.9-1.1,1.9-1.2,3c-0.9,0.3-1.6,0.8-2.2,1.6l-1.8,2.2c-1.3,1.6-1.5,3.8-0.5,5.6l1.1,2l0.4,1.2c-0.8,1.1-1.1,1.9-1.2,2.7
			c0,0.2-0.1,0.6-0.2,3.2c-1.4,1.7-1.5,4.1-0.3,5.9l0.5,0.8l0,0.7c-0.4,0.5-0.7,1.1-0.9,1.7l-0.6-0.3l-0.7-1.3
			c-0.5-0.9-1.2-1.6-2.1-2c0,0-0.1-0.1-0.1-0.1l-1.4-1.7c-0.4-0.5-0.9-0.8-1.4-1.1c-0.3-0.4-0.6-0.7-1-1c-0.1-0.4-0.2-0.8-0.4-1.1
			l-1.8-3.8c-0.4-0.9-1-1.6-1.8-2.1l-3.6-2.3c-1.3-0.8-2.9-1-4.4-0.5l-2.5,0.9c-0.3,0.1-0.5,0.2-0.8,0.4c-1.1,0.1-2.1,0.5-2.9,1.2
			l-2.1,1.8c-1.1,0.9-1.7,2.2-1.8,3.7l0,0.5l-1.5,1.4c-0.4,0.4-0.8,0.8-1,1.3l-1.5,2.9c0,0,0,0,0,0c-3.5,2.2-4.1,2.9-4.6,3.8
			c-0.1,0.2-0.4,0.6-0.6,1.3c-0.4,0.1-0.8,0.3-1.1,0.6l-4.3,3c-1.4,1-2.2,2.6-2.1,4.3l0.1,2.1l-2.1,4.3c-0.4,0.1-0.7,0.3-1,0.4
			c-0.4,0.2-0.7,0.4-4.4,3.1c-0.6,0.4-1.1,1-1.4,1.6l-0.7,1.3l-1.9,2.3c-0.7,0.2-1.3,0.5-1.8,0.9l-1.8,1.5c-1.5,0-3,0.7-4,1.9
			l-2.4,3c-1,1.2-1.3,2.7-1,4.1l-2,0.9c-0.2,0.1-0.4,0.2-0.6,0.3c-1.2-0.3-2.5-0.1-3.7,0.5l-5.1,2.9c-1.3,0.7-2.2,2-2.5,3.5
			l-1.7,1.4c-1.3,1-2,2.7-1.9,4.3l0,0.3c-1.1,0.3-2.1,1-2.8,2c-0.1,0-0.2,0.1-0.3,0.1l-2,0.9c-0.8,0.4-1.5,0.9-2,1.6l0-1.1
			c0-1.2-0.3-2.4-1.1-3.3L457,396c-0.8-1-1.9-1.6-3.1-1.8l-1.4-0.2c-0.5-0.8-1.3-1.5-2.3-1.9l-1.9-0.8l-2.6-3.9l-0.2-1
			c-0.2-1.5-1.2-2.9-2.5-3.6l-3.5-1.9l-1-0.7c-0.5-1-1.3-1.8-2.3-2.3c-1.4-0.7-3.1-0.7-4.5,0.1l-3.1,1.7c-0.9,0.5-1.7,1.3-2.1,2.2
			l-1.3,0.7c-0.5,0.3-1,0.6-1.4,1c-0.2,0.1-0.4,0.2-0.5,0.3l-1.8,1.1c-0.7,0.4-1.3,1.1-1.7,1.8l-0.8,1.4l-5,4.5
			c-0.9,0.8-1.4,1.9-1.6,3l-1.2,0.9l-0.3,0c-1,0.1-1.9,0.6-2.6,1.2l-1.5,1.4c-0.8,0.7-1.3,1.6-1.5,2.6l-0.6,2.5
			c-0.2,0.9-0.2,1.8,0.1,2.6l-1,1.7c-0.8-0.1-1.7,0-2.4,0.3l-2.8,1c-1.5,0.5-2.5,1.7-3,3.1l-0.7,0.3c-1.9,0.8-3.2,2.6-3.2,4.7v2.8
			c0,1.1,0.4,2.2,1,3l1.8,2.3c-0.8,0.7-1.3,1.6-1.5,2.7l-0.5,2.4c0,0.1,0,0.1,0,0.2c-0.7,0.7-1.3,1.6-1.5,2.6
			c-0.4,0.4-0.7,0.9-1,1.4c-0.7,0.3-1.3,0.8-1.8,1.4l-1,1.2c-1,1.3-1.4,3.1-0.9,4.6l0.7,2.1c0.2,0.6,0.5,1.1,0.9,1.6l1.8,2.2
			c0.7,0.9,1.7,1.5,2.8,1.7l2.1,1.8c0.4,0.3,0.8,0.6,1.2,0.8c0.2,0.8,0.6,1.5,1.2,2.2l2.1,2.3c0.6,0.7,1.4,1.1,2.2,1.4l1.4,0.4
			c0.3,0.1,0.6,0.2,0.9,0.2l-4.5,3.6c-1,0.8-1.6,1.9-1.8,3.2l-0.2,1.7c0,0.4-0.1,0.7,0,1.1c-0.1,0.1-0.2,0.2-0.3,0.3l-4.7,4.8
			c-0.3,0.3-0.6,0.6-0.8,1l-1.2,2l0,0c-0.8-0.6-1.7-1-2.7-1.1c-0.8-0.9-1.8-1.6-3-1.8c-0.9-0.7-2-1.2-3.2-1.2h-0.8
			c-1.6,0-3.1,0.8-4.1,2.1l-0.5,0.7c-0.3,0.4-0.5,0.7-0.6,1.2c-0.8,0.7-1.4,1.6-1.7,2.6c-1,1.1-1.4,2.5-1.2,4l0.2,1.3
			c0,0.1,0,0.1,0,0.2c-0.1,0.2-0.2,0.4-0.3,0.6l-1.9,3.8c-0.5,1-0.6,2.1-0.4,3.1l0.2,0.8l-1.4,1.7c-0.8,1-1.2,2.3-1.1,3.5l0.3,4.8
			c0,0.7,0.2,1.4,0.6,2l0.7,1.3c-1.8,1.1-2.7,3.2-2.3,5.3l0,0.2c-0.2,0.3-0.3,0.7-0.4,1l-0.2,0.8l-1.7,1.6c-1,0.9-1.6,2.3-1.6,3.6
			v0.1c-0.3,0.5-0.5,0.9-0.6,1.5c-0.7,0.7-1.2,1.5-1.4,2.5l-0.4,1.9c-0.3,1.3-0.1,2.6,0.6,3.7l0.3,0.5c-0.2,1.7,0.5,3.5,2,4.6
			l2.4,1.8c0.1,0.1,0.1,0.1,0.2,0.1l0.1,0.2c0,0.1,0.1,0.1,0.1,0.2c0,0.1,0.1,0.2,0.2,0.3c0,0.7,0.2,1.4,0.5,2
			c-1,0.4-1.9,1.2-2.4,2.1l-2.4,4.2c-0.7,1.3-0.8,2.8-0.4,4.1c-0.3,0.6-0.4,1.2-0.5,1.8l-0.9,0.9c-0.8,0.8-1.3,1.8-1.4,2.9l-0.2,2
			c0,0,0,0-0.1,0c-0.9-0.6-1.9-0.9-3-0.8c-1.3,0.1-2.5,0.6-3.4,1.6c-0.8,0.1-1.6,0.3-2.3,0.8l-0.9,0.6c-0.5-0.3-1-0.4-1.6-0.5
			l-0.9-0.1l-0.3-0.3c-0.9-0.7-2.1-1.1-3.3-1l-0.4,0c-0.9-0.7-2-1.1-3.1-1.1h-0.6l-2.3-1.3c-1-0.6-2.1-0.8-3.2-0.6
			c0,0,0-0.1-0.1-0.1c0.2-0.4,0.3-0.8,0.3-1.2l0.1-1l1-1.2c1.1-1.2,1.5-2.9,1-4.5l-0.5-2c-0.6-2.5-3-4-5.5-3.7
			c-1.3-0.8-2.9-1-4.3-0.5l-0.7,0.2c-1.1-0.9-2.6-1.2-4-0.9c-1.9-0.7-4-0.2-5.4,1.3l-1.2,1.2c-0.1-0.6-0.4-1.3-0.7-1.8l0-0.7
			c0-0.5-0.1-1.1-0.3-1.6l-0.8-2.5c-0.2-0.7-0.6-1.4-1.2-1.9l-2.1-2.1l-3.3-3.2c-0.6-0.6-1.3-1-2.1-1.2L299,525
			c0.6-1,0.8-2.3,0.5-3.5c-0.3-1.4-1.2-2.6-2.4-3.3l-0.2-0.1c-0.1-1.6-0.9-3-2.2-3.9l-2.5-1.7c-0.1-0.1-0.3-0.2-0.5-0.3l-0.7-2.3
			c-0.1-0.4-0.3-0.7-0.4-1l-1.7-3c-1-1.7-2.9-2.7-4.9-2.5l-3,0.3l-1.7-0.4l-4.2-1.7c-1.3-0.5-2.7-0.5-4,0.1c0,0-0.1,0-0.1,0l0,0
			c-0.8-0.5-1.7-0.9-2.6-0.9l-3.8-0.2c-1.3-0.1-2.5,0.4-3.5,1.2l-1.7,1.5l-1.3,0.2c-0.7-1.2-1.8-2-3.2-2.3l-0.2-0.3l-0.4-2.7
			c-0.1-0.5-0.2-0.9-0.4-1.3c0.3-0.7,0.5-1.4,0.5-2.1l1.4-1.5c0.4-0.4,0.6-0.8,0.9-1.3l1.1-2.5l2-2.2c0.8-0.8,1.2-1.9,1.3-3l0-0.1
			l0.5-0.4c1.1-0.8,1.9-1.9,2.1-3.3c0.2-1.3-0.1-2.7-0.9-3.8l-2.3-3.2l3.9-1.5c0.8-0.3,1.5-0.8,2-1.5l2.1-2.5
			c0.6-0.7,0.9-1.5,1.1-2.4l0.4-2.7c0.1-0.4,0.1-0.7,0.1-1.1l-0.3-5.1c0-0.7-0.2-1.3-0.5-2l-1.8-3.6l-0.1-3.6l0.5-1.1l1.6-1.7
			c1.5-1.6,1.7-4.1,0.6-6l-0.8-1.4c-0.9-1.5-2.5-2.4-4.3-2.4H264c-0.3-0.4-0.7-0.7-1.2-0.9l0.1-0.3c0.7-1.3,0.8-2.8,0.2-4.1
			c-0.5-1.3-1.6-2.4-3-2.9l-0.7-0.3l-0.1-1.8l0.7-0.7c1.3-1.3,1.8-3.1,1.3-4.9c-0.4-1.5-1.6-2.8-3-3.3l0-0.1l0,0
			c0.3-1.1,0.2-2.3-0.2-3.3l-1-2.3l0.2-1c0.4-1.8-0.3-3.7-1.7-4.8l-4.4-3.7c-0.3-0.3-0.7-0.5-1.1-0.7l-4.4-2c-1-0.5-2.1-0.6-3.2-0.3
			l-0.8,0.2l-0.5-0.5c0.1-0.4,0.2-0.9,0.2-1.4l-0.2-8.1c0-0.6-0.2-1.3-0.4-1.9l1-3.3c0.2-0.7,0.3-1.4,0.2-2.1l-0.3-2.7
			c-0.2-1.7-1.3-3.2-2.8-3.9l-2.6-1.3c-0.7-0.3-1.4-0.5-2.2-0.5h-1.6l-0.8-0.7c-0.5-0.5-1.1-0.8-1.7-1.1l-3.5-1.3
			c-0.4-0.2-0.9-0.3-1.4-0.3c-0.5-0.6-1.1-1.1-1.8-1.4l-1.9-0.9c0-0.1,0-0.2-0.1-0.3l-0.9-3.9c-0.4-1.7-1.7-3.1-3.4-3.6
			c-1.7-0.5-3.6-0.1-4.9,1.2l-0.3,0.3c-0.3-0.2-0.6-0.4-0.9-0.6c-0.1-0.6-0.3-1.2-0.7-1.7l-1.4-2.2c-1.2-2-3.7-2.9-5.9-2.1l0,0
			l-0.1-0.2c-0.5-1.3-1.6-2.2-2.8-2.7c-1.3-0.5-2.7-0.4-3.9,0.2l-1.4,0.7l-0.9-0.7l-0.5-0.9l0-1.5l0.3-3.6c0.6-0.8,1-1.8,1.1-2.8
			l0.1-1.8c0.1-1.5-0.5-2.9-1.5-3.9l-1.9-1.9c-0.3-2.5-2.4-4.4-5-4.4h-2.7c-1.8,0-3.4,0.9-4.3,2.4l-1.4,2.4c-1.2,0-2.3,0.5-3.2,1.2
			l-0.6,0.5h-1c-1.7,0-3.3,0.9-4.2,2.3l-0.1,0.2c-1.1-0.1-2.2,0.1-3.2,0.7l-4.4,2.6c-0.6-0.1-1.1,0-1.7,0.1c-0.9-1-2.3-1.7-3.8-1.7
			h-1.4c-2.4,0-4.5,1.8-4.9,4.2l-0.3,1.9c-0.1,0.8-0.1,1.7,0.2,2.5l1.4,4c0.2,0.5,0.4,0.9,0.7,1.3c-0.1,0.6-0.1,1.3,0.1,1.9l1.1,4.7
			c-0.5,0-0.9,0-1.4,0.1l-1.1,0.2c-0.8-0.5-1.7-0.8-2.6-0.8c0,0,0,0,0,0c-1.6,0-3.1,0.8-4.1,2.1c-1,0.1-2,0.6-2.8,1.4
			c-0.9,0.1-1.8,0.4-2.5,0.9l-1.9,1.4c-1.4,1-2.2,2.7-2,4.4l0.2,2.2c0,0.3,0.1,0.5,0.1,0.8c-0.2,0.3-0.3,0.6-0.4,1
			c-0.3,1-0.3,2.1,0.1,3.1l-0.4,1.5l-1.6,1.9c-0.7,0-1.4,0.1-2,0.3c-0.2-0.3-0.5-0.5-0.7-0.7l-2.1-1.7c-0.9-0.7-2-1.1-3.2-1.1h-1
			l-0.8-0.6c-0.1-0.5-0.4-1-0.7-1.5l-1.9-3c-0.4-0.7-1-1.2-1.7-1.6c0-0.1,0-0.2,0-0.3l0-2.2c0-0.6-0.1-1.1-0.3-1.7
			c0.3-0.9,0.4-1.8,0.2-2.7l-0.3-1.4c-0.3-1.5-1.3-2.7-2.7-3.4c-0.5-1.5-1.6-2.7-3.1-3.2c-0.6-0.6-1.3-1.1-2.2-1.3l-1.6-0.5
			c-2.4-0.7-4.9,0.4-5.9,2.7l-1.2,2.6c-1-0.3-2.1-0.2-3.1,0.2l-1-0.7l-2-1.9c-1.1-1-2.5-1.5-4-1.4l-1.7-1.3v-0.8c0-2.8-2.2-5-5-5
			h-1.1c-1,0-2,0.3-2.9,0.9l-2.6,1.8l0.3-2c0.1-0.5,0.1-1,0-1.5l-0.8-5.6c-0.1-0.9-0.5-1.7-1.1-2.4l-3-3.7c-0.2-0.3-0.5-0.6-0.8-0.8
			l-3.8-3c-0.9-0.7-2-1-3.1-1h-1.2l0.4-2c0.2-0.9,0.1-1.8-0.3-2.7l-1.3-3.4c0.5-0.6,0.8-1.3,0.9-2.1l0.3-1.7c0-0.3,0.1-0.5,0.1-0.8
			l1.3-0.8c1-0.6,1.7-1.4,2.1-2.5l1.4-3.6c0.3-0.7,0.4-1.5,0.3-2.3l-0.5-5.8c-0.2-1.8-1.3-3.4-2.9-4.1l-1.6-0.7l1.6-2.7
			c1.2-2,0.8-4.5-0.8-6.1l0,0c0.3-1.5-0.2-3.1-1.2-4.3l-1.4-1.5l0.6-1.5c0.9-2.3,0-5-2.3-6.2l-0.9-0.5l0,0c0.1-1.8-0.8-3.4-2.3-4.4
			l-2.2-1.5c-0.2-1.5-1-2.8-2.3-3.7c-1.4-0.9-3.2-1-4.8-0.3l-2.7,1.2c-0.9,0.4-1.7,1.1-2.2,1.9l-1.8,2.9l-1.7,0.4
			c-1.1,0.3-2,0.9-2.7,1.8l-2.2,2.8h-0.8c-1.5,0-3,0.7-3.9,1.9l-1.1,1.4l-0.4,0.1c-1.2,0.3-2.2,1-2.9,1.9l-0.9,0.5
			c-0.8-0.7-1.8-1.1-2.9-1.1c-0.9-1-2.2-1.6-3.6-1.6h-4.9c-0.3,0-0.7,0-1,0.1c-0.3-0.1-0.6-0.2-0.9-0.3l-1.7-0.4
			c-0.6-1.1-1.7-1.9-2.9-2.3c-0.9-0.3-1.9-0.3-2.8,0c-0.3-0.1-0.6-0.1-0.9-0.2l-1.6-0.2c-1.1-0.1-2.2,0.1-3.1,0.7l-3.3,2
			c-0.2,0.1-0.4,0.3-0.6,0.4l-1.9,0.9c-0.8,0.4-1.6,1-2.1,1.7c-1.1,0-2.2,0.4-3.1,1.1l-0.5,0.4l-1,0.1c-1,0.1-1.9,0.6-2.7,1.2
			c-0.3-0.1-0.6-0.2-0.9-0.2c-0.9-1.1-2.3-1.8-3.8-1.8h-1c-1.4,0-2.6,0.6-3.6,1.5l-0.3,0.1l0.5-0.7c0.3-0.4,0.5-0.9,0.6-1.4
			c0.6-0.8,0.9-1.8,0.9-2.8v-0.3l0.4-0.9c0.3-0.7,0.5-1.4,0.5-2.2l-0.1-3.9c0.4-0.8,0.6-1.8,0.5-2.7l-0.1-0.9l1.9-5.8
			c0.1-0.4,0.2-0.7,0.2-1.1l0.1-0.9l0.5-1c0.1,0,0.2-0.1,0.2-0.1c0.4-0.1,0.8-0.1,1.1-0.3l1.6,0.1c0.7,0.1,1.4-0.1,2.1-0.3l1.6-0.6
			c1.2-0.4,2.1-1.3,2.7-2.3l0.9-0.7c0.9-0.7,1.5-1.7,1.8-2.8l0.3-1.1c0.3-1.3,0.1-2.6-0.6-3.7c-0.1-1.1-0.5-2.1-1.2-2.9l-1.3-1.5
			c-0.1-0.5-0.3-0.9-0.6-1.3l-1.2-2c-0.5-0.8-1.3-1.5-2.2-1.9l0.3-0.3c0.4-0.4,0.7-0.8,0.9-1.3l1.7,0c0.4,0.3,0.8,0.5,1.3,0.6
			l0.5,0.2c1.7,0.6,3.5,0.2,4.9-1l1.3-1.2c1-0.9,1.6-2.1,1.7-3.3c0.3-0.5,0.4-1.1,0.5-1.7l0.3-3.3c0.1-0.8,0-1.7-0.4-2.4l-1.3-3.1
			c-0.2-0.6-0.6-1.1-1-1.5l-0.7-0.7l-0.3-1.2l-0.1-1.5l0-0.5l0.7-1.5c0.9-0.9,1.5-2,1.5-3.3l0.1-1.7c0.1-1.7-0.6-3.3-2-4.3l-2.2-1.6
			c-0.9-0.7-2-1-3.1-1l-1.9,0l-1.4-1c-0.2-0.1-0.4-0.2-0.5-0.3l-0.3-0.2l-0.4-3.4l3.1-7l3.1-2.8c0.9-0.8,1.5-2,1.6-3.2l0.3-2.7
			c0.7-1,1-2.2,0.8-3.5l-0.2-1.2l1.9-3.2l1.6-1.7c0.6-0.6,1.1-1.4,1.3-2.3l0.4-1.7l1.1-1.3c0.1-0.1,0.1-0.1,0.2-0.2
			c0.1,0.7,0.3,1.4,0.7,2.1l0.1,0.2v0.4c0,1.2,0.4,2.4,1.3,3.3l1.1,1.2l0.2,0.4c0.3,0.9,0.9,1.6,1.6,2.2l0.2,0.1
			c0.2,0.5,0.6,1,1,1.4l0.9,0.9c0.9,0.9,2.2,1.5,3.5,1.5h0.2v0c0,0.5,0,1,0.2,1.5c0,0,0,0,0,0.1l-0.6,1.3c-0.6,1.5-0.5,3.1,0.2,4.5
			l0.1,0.5c0,0.4,0.1,0.8,0.3,1.1l0.4,1.2c0.4,1.1,1.2,2.1,2.3,2.7l0.5,0.3c0.3,0.4,0.6,0.8,1,1.1l0.5,0.4c-0.1,1,0.1,2,0.6,3l0,0.2
			c0,0.3,0.1,0.6,0.1,0.9L18,204c0.2,0.8,0.6,1.6,1.2,2.2l0.6,0.7c0.2,0.5,0.5,0.9,0.9,1.3c0.2,0.9,0.6,1.6,1.2,2.3l0.6,0.7
			c0.4,1.5,1.5,2.7,3,3.2l1.9,0.8l0.9,1c0.6,0.6,1.3,1.1,2,1.3l0.9,0.3c0.3,0.1,0.7,0.2,1,0.2l2.2,0.3c0.2,0.5,0.5,1.1,0.9,1.5
			l1.6,1.8c0.9,1.1,2.3,1.7,3.8,1.7h0.7c1,0,1.9-0.3,2.6-0.7c0.4,0.3,0.9,0.5,1.4,0.7l2,0.6c1,0.3,2,0.3,3,0l0.4-0.1h0.3
			c1.1,0,2.2-0.4,3-1l3.2-2.5c0.6-0.5,1.1-1.1,1.5-1.8c0.1-0.1,0.2-0.2,0.4-0.3l1.2-1.3c0.4-0.2,0.8-0.4,1.2-0.7l2-1.7l0.8-0.2
			l1.4,0.4c0.2,0.2,0.5,0.3,0.7,0.5l-0.5,1.4c-0.1,0.3-0.2,0.6-0.2,0.8l-0.1,0.2c-0.5,0.6-0.8,1.3-1,2.1l-0.5,2.3
			c-0.3,1.2-0.1,2.4,0.5,3.4c0.1,0.7,0.3,1.3,0.7,1.8l1.2,1.8l-0.1,0.2c-0.7,0.8-1.1,1.8-1.2,2.9l-0.2,2.1c-0.1,1.1,0.2,2.2,0.8,3.1
			l0.2,0.8c0.1,0.5,0.3,1,0.6,1.5l0.1,1.2c0.1,0.9,0.4,1.8,0.9,2.5l1,1.4c0.5,0.7,1.1,1.2,1.8,1.5l0.7,0.4c0.4,0.5,0.8,1,1.4,1.3
			c0.1,0.2,0.1,0.3,0.2,0.5c0,0.2,0,0.4,0.1,0.6c-0.1,0.3-0.1,0.6-0.2,0.9l-0.4,3.6l0,0.1c-1.1,0.7-1.9,1.8-2.1,3.1l-0.6,2.8
			l-0.3,0.9c-0.2,0.5-0.3,1.1-0.3,1.7l-0.1,2.2c0,1.1,0.3,2.2,0.9,3.1l1.7,2.3c0.8,1.1,1.9,1.8,3.2,2l1.1,0.2l0.2,0.2
			c0.9,0.9,2.2,1.5,3.5,1.5h1.3c1.7,0,3.2-0.8,4.2-2.2l0.3-0.5l1.8-0.4c1-0.2,2-0.7,2.7-1.5l1.4-1.5c0.9-1,1.4-2.3,1.3-3.6l-0.1-2.8
			l1.3-1.5c0,0,0,0,0.1-0.1l2.7,2.8c0.7,0.8,1.7,1.3,2.7,1.5l3.6,0.6c0.3,0.1,0.6,0.1,0.9,0.1h1.6l0.3,4.6c0,0.5,0.1,1,0.3,1.5
			l1.4,3.6c0.5,1.2,1.4,2.2,2.6,2.7l6.1,2.7c1.3,0.6,2.8,0.6,4,0c0.3-0.1,0.5-0.3,0.8-0.4c1,1,2.4,1.5,3.9,1.4l1.9-0.2l0.5,1.1
			l1.8,6.7l0.2,3.5c0.1,1.3,0.6,2.5,1.5,3.3l2.8,2.7c0.4,0.4,0.8,0.7,1.3,0.9l0.1,0.4c0.3,0.7,0.7,1.4,1.3,1.9l1.2,1.1
			c1.1,1,2.5,1.4,3.9,1.3c1.4-0.2,2.7-0.9,3.5-2.1l0.4-0.5l2.2-0.9c0.2-0.1,0.4-0.2,0.5-0.3l0.8-0.4l2.5,1.3
			c0.8,0.4,1.7,0.6,2.6,0.5l5.8-0.3v0.6c0,1.5,0.6,2.9,1.8,3.8l1.4,1.2c0.7,0.6,1.4,0.9,2.3,1.1l2.3,0.4c1.8,0.3,3.7-0.3,4.8-1.8
			l0.8-1l4.8-2.8c0.3,0.9,0.8,1.8,1.6,2.4l2,1.7c2,1.7,4.9,1.6,6.8-0.3l1.2-1.2c1.4-1.4,1.9-3.6,1.1-5.5l2.9-4.3
			c0.5-0.7,0.8-1.5,0.8-2.4l0.1-1.5c0.3,0,0.6,0.1,0.9,0.1l4.1-0.1l2.2,0.8c1.5,0.5,3.1,0.4,4.3-0.4l1.6,2c0.3,0.3,0.6,0.6,0.9,0.9
			l1.7,1.3c0.3,0.3,0.7,0.5,1.1,0.6l2.7,1.1l0.1,0.6c-0.5,1.8,0,3.7,1.4,5l2.3,2.2c0.9,0.8,2,1.3,3.2,1.4l1.4,0.1
			c1.2,0.1,2.4-0.3,3.3-1.1l1.7-1.3c0.9-0.7,1.6-1.8,1.8-2.9l0.4-1.9l0.7-0.7c0.8-0.8,1.4-1.8,1.5-3l0.5-4c0-0.3,0.1-0.5,0-0.8
			l0.1-0.1c0.4-0.6,0.6-1.3,0.7-2l0.3-2.6c0.1-1.2-0.2-2.4-0.9-3.4c0-0.1,0-0.1,0.1-0.2l0.9-3.4c0-0.2,0.1-0.3,0.1-0.5l0.6-3.4
			l2.2-3.6c0.2-0.3,0.3-0.6,0.5-1l0.7-2c1.2-1.1,1.8-2.7,1.6-4.3l-0.5-3.9c-0.1-0.7-0.3-1.4-0.7-2l-1.3-2.2
			c-0.8-1.3-2.1-2.1-3.6-2.3l-1.4-0.2l-0.3-0.2l0-0.2c0-0.3-0.1-0.7-0.2-1l0.5-0.6c0.7-0.1,1.3-0.4,1.8-0.8l1.7-1.2
			c0.5-0.3,0.9-0.8,1.3-1.3l1.3-1.8c0.1-0.2,0.2-0.3,0.3-0.5l2.1-4c0.3-0.5,0.5-1.1,0.6-1.7l0.4-2.7c0-0.3,0.1-0.7,0-1
			c0.3-0.6,0.4-1.3,0.4-2l0-0.5c0.5-0.8,0.8-1.7,0.8-2.7c0.1-0.1,0.2-0.1,0.2-0.2l1-0.7l3.5-1.8c1.1-0.6,2-1.5,2.4-2.7l0.1-0.3
			c0.4-0.2,0.8-0.5,1.1-0.9l1.5-1.7c0.2-0.2,0.4-0.5,0.6-0.8l0.9-1.5l1.3-1.6c0.3-0.4,0.5-0.8,0.7-1.2l0.5-1.2
			c0.2-0.4,0.3-0.8,0.3-1.3l0.1-0.8l0.1-0.2c0.4-0.6,0.6-1.3,0.7-2.1l0-0.2l1.2-1.1c0.5-0.5,1-1.1,1.2-1.8l0.3-0.7l2.3,1.3
			c0.8,0.5,1.7,0.7,2.5,0.7l2.3,2.3c0.5,0.5,1.2,0.9,1.9,1.2l1.1,0.4l1.4,1c0.6,0.4,1.3,0.7,2.1,0.8l2.9,0.4c0.1,0,0.1,0,0.2,0
			l1.2,1.2c0.2,0.7,0.5,1.3,1,1.8l1.5,1.8c0.2,0.3,0.5,0.6,0.8,0.8l0.7,0.6c0,1.3,0.6,2.6,1.6,3.5l0.7,0.6c0.1,0.1,0.1,0.1,0.2,0.2
			l0,0c0.2,0.9,0.6,1.7,1.2,2.3l0.5,0.6l-0.2,0.2c-0.6,0.8-0.9,1.9-0.9,2.9v2.1c0,0,0,0.1,0,0.1c-0.6,0.7-0.9,1.6-1,2.6L284,239
			c-0.7,0.6-1.2,1.4-1.5,2.3l-0.4,1.4c-0.2,0.5-0.2,1.1-0.2,1.6c-0.3,0.3-0.6,0.7-0.8,1.1l-0.8,1.5c-0.5,1-0.6,2-0.5,3l-0.1,0.1
			c-0.4,0.3-0.7,0.6-1,1l-1.1-0.2c-1.3-0.2-2.6,0-3.6,0.7l-2.4,1.6l-1.2,0.3c-1.3,0.3-2.4,1.1-3.1,2.2l-0.9,1.4
			c-0.8,1.3-0.9,2.8-0.5,4.1c-0.3,0.4-0.6,1-0.7,1.5l-0.2,0.8c-0.1,0.4-0.2,0.8-0.2,1.2c-0.8,0.9-1.2,2.1-1.1,3.4l0,0.3l-1.1,1.6
			c-0.8,1.1-1.1,2.5-0.8,3.8l0.5,2.7c0.4,2.1,2,3.7,4.1,4.1l0.6,0.1l2.2,2.7c0.6,0.7,1.5,1.3,2.4,1.6l0,0c0,0.3,0.1,0.6,0.2,1
			c0,0.1,0,0.1,0,0.2c-0.3,1.3-0.1,2.7,0.7,3.9l1.1,1.6c1.4,2.1,4.1,2.8,6.3,1.7c0.2,0.1,0.4,0.2,0.6,0.3l2.2,0.8l0.2,0.2
			c0.8,1.2,2.2,2,3.6,2.1c1.5,0.1,2.9-0.4,3.9-1.4l2.9-2.8c1-1,1.5-2.3,1.5-3.7l0-0.6l1.7-2.6l0.6-0.4c1.1-0.7,1.9-1.9,2.2-3.2
			l0.8-3.9l0.4-0.4c1-1,1.4-2.4,1.3-3.8c0-0.4-0.1-0.8-0.2-1.2l1.1-0.2c0.6,0.2,1.2,0.3,1.8,0.3h5.6c0.5,0,0.9-0.1,1.4-0.2l3.4-1
			c0.9-0.3,1.8-0.8,2.4-1.5l2.1-2.4c0.5-0.6,0.9-1.4,1.1-2.2l0.3-1.3c0.2-0.7,0.1-1.5,0-2.2c0.7-0.6,1.1-1.4,1.4-2.4l0.1-0.5
			c0.6-0.6,1-1.4,1.3-2.2l0.8-2.8l0.1-0.1c1-0.2,2-0.7,2.8-1.4l3.4-3.5c0.6-0.6,1-1.3,1.2-2c0.8-0.6,1.5-1.4,1.9-2.4l0.7-1.9
			c0.2-0.4,0.3-0.8,0.3-1.3c0.2-0.4,0.4-0.8,0.5-1.2c0.4-1.5,0.1-3-0.7-4.3l-0.1-0.1l1.7-1.2c0,0,0.1-0.1,0.1-0.1l0.8,0.2
			c0.4,0.5,0.9,1,1.4,1.3l2.1,1.3c0.1,1.5,0.8,2.9,2.1,3.8l2.7,1.9c0.8,0.6,1.8,0.9,2.8,0.9l9.3,0.1c1,0,1.9-0.3,2.8-0.8l0.5-0.3
			l2.5,1.8c1.9,1.4,4.4,1.3,6.2-0.2l1.4-1.2c0.9-0.8,1.6-1.9,1.7-3.1c0.8,0.7,1.9,1,3,1.1l2.2,0.1c0.2,0.1,0.4,0.3,0.7,0.4l1.5,0.7
			c1.4,0.6,3,0.6,4.4-0.2c1.1-0.6,1.9-1.6,2.4-2.7c0.9-0.7,1.5-1.8,1.8-2.9c0.7-0.4,1.3-0.9,1.7-1.6l1.8-2.7
			c0.5-0.8,0.8-1.7,0.8-2.6c0.8-0.7,1.3-1.6,1.5-2.7l0.2-0.1c1.9-0.3,3.4-1.6,4-3.4l0.8-2.5c0.2-0.6,0.3-1.2,0.2-1.7l0.6-1.5
			c0.2-0.6,0.4-1.2,0.4-1.8c0.1-0.2,0.2-0.5,0.3-0.7c0.6-0.5,1.1-1.2,1.4-2l0.7-0.5c0.5-0.4,1-0.9,1.3-1.5l1.1-0.6
			c1.2-0.7,2.1-1.8,2.4-3.2c0.1-0.4,0.1-0.7,0.1-1.1c1-0.2,1.9-0.7,2.6-1.4l2.2-2.2c0.1-0.1,0.2-0.2,0.2-0.3l2.2,0.1
			c1.6,0.1,3.3-0.6,4.3-2l1.1-1.4c0.3-0.4,0.5-0.8,0.7-1.3l1.4,0.1c1.2,0.1,2.4-0.3,3.3-1.1l0.2-0.2l1.3-0.3
			c1.4-0.3,2.5-1.2,3.2-2.4l1.2-2.3c0.4-0.8,0.7-1.7,0.6-2.7l0.2-0.2c1.2-1.2,1.7-2.8,1.4-4.4l0.4-0.5c0.6-0.8,1-1.7,1.1-2.7
			l0.1-0.7l0,0c0.1-0.1,0.2-0.2,0.3-0.2c0.3,0.1,0.5,0.2,0.8,0.3l1.8,0.5c2.4,0.7,5-0.6,6-2.9l0.6-1.5l0.3-0.2
			c0.6,0.1,1.3,0,1.9-0.1l1.1-0.3c1.5-0.4,2.7-1.4,3.3-2.8l0.7-1.6c0.5-1.1,0.6-2.5,0.2-3.6l-1-3l0.2-2.1c0.6-0.8,1-1.7,1.1-2.7
			l0-0.3c0.8-0.1,1.6-0.3,2.4-0.8c1.3-0.8,2.1-2.2,2.2-3.7l0.1-1.2c0.1-1.4-0.3-2.8-1.3-3.8l-0.2-0.3l0-0.3c-0.2-2.3-2-4.2-4.3-4.5
			l-0.5-0.1l1.5-0.6c2.1-0.8,3.3-2.8,3.2-5c0.6-0.7,1-1.5,1.2-2.4l0.2-1.2c0.2-0.9,0.1-1.9-0.2-2.7l-0.7-1.8
			c-0.3-0.7-0.7-1.3-1.2-1.8l0-0.4c0.1-1.3-0.4-2.6-1.2-3.5l-0.2-2.8l0.8-2.4c0-0.1,0.1-0.2,0.1-0.3l0.3-0.9l0.5-0.3
			c1.2-0.8,2.1-2,2.3-3.4l0.2-1c0.3-1.7-0.3-3.5-1.7-4.6l-1.9-1.6l0-0.1c0.6-1.1,0.8-2.5,0.4-3.7l-0.2-0.8c-0.4-1.4-1.3-2.5-2.6-3.1
			c-1.2-0.6-2.5-0.7-3.8-0.2c-0.2,0-0.3-0.1-0.5-0.1l-1.5-0.2c0,0-0.1,0-0.1,0c-0.4-0.3-0.8-0.5-1.2-0.6c0.2-2.6,0.1-4.3-1.2-5.8
			c-0.8-0.9-1.8-1.4-3-1.6c-0.5-0.1-1.8-0.5-2.9-0.8c-0.3-0.1-0.5-0.1-0.8-0.2c0,0,0,0,0,0l1.7-0.4c0.9-0.2,1.8-0.7,2.4-1.4
			c0.2,0.2,0.5,0.3,0.8,0.5l1,0.5c0.4,1.2,1.2,2.2,2.3,2.8l3.9,2.2c0.6,0.4,1.3,0.6,2,0.6c0.5,0.5,1.1,0.9,1.7,1.2
			c0.1,0.5,0.4,0.9,0.6,1.4l3.6,5.4c0,1.2,0.4,2.3,1.2,3.2l0.5,3.4c0.1,1,0.5,1.8,1.2,2.6l0,0.1c0.2,0.8,0.6,1.6,1.2,2.2l0.7,0.7
			l0,0.2c-0.1,1.5,0.6,3,1.8,4l4,3.4c0.9,0.8,2,1.2,3.2,1.2h2.7c0.7,0,1.4-0.1,2-0.4l1.6-0.7l0.2,0c0.7-0.1,1.4-0.2,2-0.6l5.7-3
			c0.9-0.5,1.6-1.2,2.1-2.1l1.1-2.2l2.6-2.5l3.3-1.4l1.4,0c0.6,0,1.1-0.1,1.6-0.3l0.8-0.3h0.6c0.7,0,1.4-0.1,2-0.4l2-0.9
			c1.8-0.8,3-2.6,3-4.6v-1.1c0-2.1-1.3-3.9-3.2-4.7l-0.2-0.1l0-1.1c0-0.1,0-0.2,0-0.3c0.8-0.6,1.3-1.5,1.6-2.4l1-3.6
			c0.5-1.6,0.1-3.4-1-4.7l-1.2-1.4c0,0,0,0,0-0.1c0.6-0.2,1.1-0.6,1.5-1l2.9-2.7c0.9-0.9,1.5-2,1.6-3.3l0.2-3.2l1.6-0.5
			c1-0.3,1.9-0.9,2.6-1.7l0.6-0.7c0.5-0.7,0.9-1.5,1-2.3c0.5-0.6,0.9-1.3,1.1-2c0.9-0.9,1.4-2.1,1.4-3.5v-5.6c0-0.6-0.1-1.1-0.3-1.7
			c0.1-0.3,0.2-0.5,0.2-0.8l0.5-2.8c0.2-1,0-2.1-0.5-3.1l-0.5-1l-0.1-1.2c-0.1-0.8-0.3-1.6-0.8-2.3c0.8-1.1,1.1-2.5,0.8-3.9
			l-0.4-1.9c0.4-0.7,0.6-1.5,0.6-2.3c0-1.8-0.9-3.5-2.5-4.4v-3c1.3-0.4,2.3-1.2,3-2.4c0.7-1.3,0.8-2.8,0.3-4.2l0,0
			c0.9-0.9,1.5-2.1,1.5-3.4l0.1-2.5c0.1-1.5-0.6-3-1.8-4l-0.8-0.7l-0.1-1.6c-0.1-1.2-0.5-2.2-1.3-3.1l-0.3-0.4
			c0.1-0.2,0.1-0.4,0.2-0.7c0.2,0.1,0.5,0.2,0.7,0.3l3.8,1.2c0.5,0.7,1.2,1.4,2,1.7l6.3,3c0.6,0.3,1.3,0.4,1.9,0.5l0.4,0
			c0.7,0.3,1.4,0.5,2.2,0.5l3.4,0.1c1.7,0,3.3-0.8,4.2-2.2l0.6-0.8l2.6-1.9c0.7,0.1,1.4,0.2,2.1,0l1.6-0.3c1.9-0.4,3.4-1.8,3.9-3.7
			c0.5-0.3,1-0.7,1.4-1.3l3.2-4.1l0.9-0.3c1.3-0.5,2.4-1.4,2.9-2.7l2.9-6.5c0.3-0.7,0.5-1.5,0.4-2.2l-0.1-2.4l1.7-3.4
			c0.2,0.9,0.7,1.7,1.3,2.3l0.7,0.7c0.6,0.6,1.3,1,2,1.2c1.3,1.3,3.1,1.8,4.9,1.3l2.6-0.7c0.9-0.3,1.7-0.8,2.4-1.4
			c2-0.2,3.7-1.5,4.3-3.3l0.5-1.4c0.5-0.1,1-0.3,1.5-0.6l1-0.6c1.1-0.7,1.9-1.8,2.3-3.1c0.3-1.3,0.1-2.7-0.6-3.8l-0.2-0.3l0.9-1.2
			c0.5-0.6,0.8-1.4,1-2.2c0.2,0.3,0.4,0.6,0.7,0.9l1.4,1.5c0.9,0.9,2,1.4,3.2,1.5l3.6,0.3l0.1,0.1c1.5,1.2,3.6,1.5,5.3,0.6
			c0.5,0.1,1,0.2,1.5,0.2l2.3-0.1c1.3,0,2.5-0.6,3.4-1.5l0.2-0.2c1-0.1,2-0.5,2.7-1.1l0.1-0.1c0,0,0.1,0,0.1,0l5.4,1.4
			c0.4,0.6,0.9,1.1,1.5,1.5l7.4,4.8c1.4,0.9,3.1,1,4.6,0.4c0.2-0.1,0.5-0.2,0.7-0.3c0.6-0.1,2.3-0.2,4.3-0.3L634.9-18.1z"/>
	</g>
	<g>
		<path class="st2" d="M41,179.5c0.7-12.5,7.3-24,17.8-30.9c57.6-37.7,122.1-67,192.3-85.8l-9.8-36.7
			c-80.2,21.5-153.9,55-219.7,98.1C9.5,132,2,145.1,1.2,159.4C-3.2,238,4.6,318.6,26.1,398.8l36.7-9.8C44,318.8,37.2,248.3,41,179.5
			z"/>
		<path class="st3" d="M480.6,1.2C402-3.2,321.4,4.6,241.2,26.1l9.8,36.7C321.2,44,391.7,37.2,460.5,41c12.5,0.7,24,7.3,30.9,17.8
			c37.7,57.6,67,122.1,85.8,192.3l36.7-9.8c-21.5-80.2-55-153.9-98.1-219.7C508,9.5,494.9,2,480.6,1.2z"/>
		<path class="st3" d="M179.5,599c-12.5-0.7-24-7.3-30.9-17.8C111,523.5,81.6,459,62.8,388.9l-36.7,9.8
			c21.5,80.2,55,153.9,98.1,219.7c7.9,12,20.9,19.6,35.3,20.4c78.6,4.4,159.2-3.5,239.3-24.9l-9.8-36.7
			C318.8,596,248.3,602.8,179.5,599z"/>
		<g>
			<path class="st4" d="M638.8,480.6c4.4-78.6-3.5-159.2-24.9-239.3l-36.7,9.8c18.8,70.1,25.6,140.7,21.8,209.4
				c-0.7,12.5-7.3,24-17.8,30.9c-57.6,37.7-122.1,67-192.3,85.8l9.8,36.7c80.2-21.5,153.9-55,219.7-98.1
				C630.5,508,638,494.9,638.8,480.6z"/>
		</g>
	</g>
</g>
</svg>
