<svg width="48" height="48" viewBox="0 0 48 48" fill="none" xmlns="http://www.w3.org/2000/svg">
<path d="M43.3 23.0369L43.13 23.2769L43.1 23.4369C43.08 23.5369 43.02 23.6268 42.93 23.6868C42.88 23.7268 42.82 23.7368 42.76 23.7468L42.72 24.0168C42.78 24.1068 42.8 24.2268 42.77 24.3267L42.73 24.4567C42.69 24.5867 42.58 24.6967 42.44 24.7167L42.36 24.7367H42.35L42.44 25.0267C42.49 25.1566 42.44 25.3066 42.35 25.3966L42.3 25.4466C42.3 25.5066 42.3 25.5966 42.3 25.6666C42.3 25.6866 42.3 25.7066 42.3 25.7266C42.32 25.7766 42.33 25.8265 42.33 25.8865V26.1965C42.33 26.2765 42.3 26.3565 42.25 26.4165V26.4665C42.25 26.6064 42.17 26.7464 42.04 26.8064L41.75 26.9464C41.65 26.9864 41.53 26.9864 41.43 26.9464L41.05 26.7664C40.98 26.7264 40.92 26.6764 40.88 26.6064L40.85 26.5564C40.72 26.5165 40.63 26.4265 40.59 26.3165C40.51 26.2765 40.45 26.2165 40.41 26.1265H40.39C40.26 26.0465 40.19 25.9065 40.2 25.7566V25.7266L40.16 25.6366C40.16 25.6366 40.09 25.6766 40.05 25.6866C40.05 25.7766 40 25.8665 39.93 25.9265L39.77 26.0865C39.82 26.1965 39.81 26.3365 39.74 26.4365C39.67 26.5564 39.54 26.6264 39.4 26.6064H39.33C39.31 26.6764 39.27 26.7464 39.21 26.7964L39.07 26.9164C39.07 26.9164 38.97 26.9864 38.91 26.9964L38.82 27.0564V27.1064C38.82 27.1664 38.82 27.2364 38.78 27.2864L38.5 27.8663C38.44 27.9763 38.34 28.0562 38.21 28.0762C38.19 28.0762 38.17 28.0762 38.15 28.0762C38.12 28.0962 38.07 28.1362 38.01 28.1762L37.98 28.2362C37.98 28.2362 37.95 28.2762 37.94 28.2962L37.68 28.5962C37.62 28.6662 37.54 28.7062 37.46 28.7262L37.38 28.7962C37.42 28.8761 37.42 28.9761 37.38 29.0661L37.28 29.3161C37.28 29.3161 37.24 29.3961 37.21 29.4261L37.05 29.606C36.97 29.706 36.83 29.746 36.7 29.726H36.6C36.6 29.726 36.54 29.696 36.52 29.686C36.44 29.736 36.34 29.766 36.24 29.756L36.11 29.736L36.06 29.776C36.06 29.886 36 29.986 35.91 30.056C35.89 30.076 35.86 30.086 35.83 30.106C35.83 30.206 35.79 30.2959 35.72 30.3659L35.52 30.5559C35.52 30.5559 35.46 30.6059 35.42 30.6259C35.38 30.6959 35.32 30.7359 35.24 30.7659L35.14 30.8059C35.14 30.8059 35.12 30.8159 35.1 30.8159C35.06 30.8759 35 30.9259 34.93 30.9459L34.77 31.0059C34.77 31.0059 34.69 31.0758 34.65 31.1058C34.55 31.1558 34.44 31.1658 34.33 31.1258L34.18 31.0658C34.18 31.0658 34.12 31.0359 34.1 31.0159C34.02 31.0059 33.94 30.9459 33.89 30.8859L33.79 30.7559C33.7 30.6359 33.69 30.4859 33.75 30.3559V30.3159H33.72C33.67 30.2959 33.62 30.2859 33.58 30.256L33.42 30.156C33.42 30.156 33.37 30.116 33.34 30.086L33.23 30.046C33.15 30.026 33.1 29.976 33.06 29.916L32.75 29.4561C32.75 29.4561 32.71 29.3761 32.7 29.3261L32.58 29.2561C32.58 29.2561 32.55 29.2361 32.54 29.2361C32.54 29.2361 32.51 29.2461 32.5 29.2561L32.39 29.3161C32.33 29.4261 32.22 29.5061 32.09 29.5161L32.06 29.566C32.06 29.566 32.01 29.636 31.98 29.666L31.66 29.946C31.66 30.056 31.6 30.146 31.52 30.206L31.24 30.4259C31.24 30.4259 31.26 30.4759 31.26 30.5059C31.26 30.6159 31.22 30.7259 31.14 30.8059L31.03 30.9159C31.07 31.0658 31.01 31.2258 30.87 31.3158L30.73 31.4058C30.65 31.4558 30.54 31.4758 30.44 31.4558H30.37C30.37 31.4558 30.34 31.4858 30.32 31.5058L30.29 31.5358C30.29 31.5358 30.37 31.6358 30.39 31.6958L30.44 31.8257C30.46 31.9057 30.46 31.9857 30.44 32.0657L30.36 32.2857C30.34 32.3657 30.28 32.4257 30.22 32.4757C30.22 32.5257 30.22 32.5856 30.2 32.6356L30.15 32.7756C30.13 32.8356 30.09 32.8956 30.04 32.9356C30.04 32.9456 30.04 32.9756 30.04 32.9856C30.03 33.0656 29.99 33.1256 29.93 33.1756L30.03 33.2656C30.08 33.2656 30.14 33.2955 30.18 33.3355L30.32 33.4455C30.37 33.4855 30.41 33.5255 30.43 33.5855C30.45 33.5855 30.48 33.5855 30.51 33.5855H30.6C30.72 33.5855 30.83 33.6455 30.9 33.7355L30.96 33.8155C31 33.8755 31.03 33.9455 31.03 34.0155L31.07 34.5954C31.07 34.7154 31.02 34.8353 30.93 34.9053L30.66 35.1253C30.69 35.1953 30.69 35.2853 30.66 35.3553L30.64 35.4253C30.62 35.5153 30.55 35.5952 30.47 35.6452L30.29 35.7452L30.01 36.0252L29.89 36.2252C29.89 36.2252 29.85 36.2752 29.83 36.3051C29.83 36.4151 29.77 36.5151 29.68 36.5851L29.6 36.6551C29.49 36.7351 29.34 36.7551 29.22 36.6951L29.17 36.6751C29.09 36.6351 29.03 36.5751 28.99 36.4851L28.93 36.4351H28.91C28.91 36.4351 28.83 36.4351 28.8 36.4151C28.8 36.4451 28.8 36.4651 28.78 36.4951L28.68 36.7151C28.66 36.7651 28.63 36.8151 28.58 36.8451L28.55 36.9051L28.57 37.0151C28.59 37.115 28.57 37.235 28.49 37.325L28.37 37.465V37.595L28.51 37.8449C28.56 37.9449 28.57 38.0549 28.53 38.1549C28.53 38.1749 28.51 38.1949 28.51 38.2049C28.51 38.2949 28.46 38.3749 28.39 38.4449C28.39 38.4849 28.39 38.5249 28.38 38.5648L28.36 38.6548C28.34 38.7448 28.28 38.8148 28.21 38.8648C28.19 38.9148 28.16 38.9648 28.12 39.0048L28.03 39.0848C28.03 39.1548 28.01 39.2148 27.97 39.2747C27.97 39.3447 27.94 39.4047 27.9 39.4647C27.92 39.5047 27.94 39.5447 27.95 39.5747L27.98 39.5947C28.05 39.6347 28.1 39.6847 28.13 39.7547L28.18 39.8647C28.18 39.8647 28.2 39.9047 28.21 39.9147C28.23 39.9247 28.24 39.9547 28.25 39.9747C28.27 39.9947 28.28 40.0147 28.29 40.0446L28.4 40.2446C28.45 40.3246 28.46 40.4346 28.44 40.5246L28.41 40.6246C28.45 40.7646 28.41 40.9045 28.31 40.9945L28.25 41.0545C28.25 41.0545 28.2 41.0945 28.17 41.1145L28.02 41.1945H28C28 41.2645 27.97 41.3345 27.92 41.3945L27.87 41.4545C27.87 41.5544 27.83 41.6444 27.76 41.7044L27.69 41.7744L27.67 41.9744C27.67 42.0844 27.59 42.1944 27.49 42.2544L27.44 42.2843L27.36 42.4543C27.31 42.5643 27.2 42.6443 27.08 42.6643C26.96 42.6843 26.83 42.6443 26.75 42.5643L26.7 42.5143C26.7 42.5143 26.66 42.5143 26.65 42.5143H26.61L26.41 42.6443C26.35 42.6843 26.27 42.7043 26.21 42.7043C26.13 42.7043 26.04 42.6743 25.97 42.6143L25.9 42.5543H25.84C25.77 42.5343 25.72 42.5143 25.67 42.4843H25.63C25.54 42.4843 25.45 42.4543 25.37 42.3943C25.3 42.3943 25.24 42.3743 25.18 42.3443L25.06 42.2743L25 42.2943C24.9 42.3243 24.78 42.3143 24.69 42.2444L24.6 42.1944C24.53 42.1544 24.48 42.0844 24.45 42.0044L24.41 41.9044L24.33 41.8244C24.23 41.7244 24.19 41.5544 24.25 41.4145L24.33 41.2545V41.2245L24.16 41.2045C24.16 41.2045 24.09 41.2045 24.06 41.1845L23.94 41.3145C23.88 41.3745 23.8 41.4145 23.72 41.4245L23.61 41.4445C23.52 41.4645 23.42 41.4445 23.35 41.3845L23.26 41.3245C23.16 41.3245 23.08 41.2745 23.01 41.2045L22.87 41.0645C22.77 40.9645 22.74 40.7945 22.8 40.6646C22.8 40.6346 22.78 40.5946 22.78 40.5646V40.4046L22.68 40.3146L22.51 40.1546L22.29 40.0946L22.07 40.0646C21.96 40.0546 21.86 39.9947 21.8 39.8947L21.64 39.6447C21.58 39.5447 21.57 39.4147 21.62 39.3047C21.57 39.2348 21.54 39.1648 21.53 39.0848C21.41 39.0448 21.31 38.9548 21.28 38.8348L21.19 38.5348H21.16C21.16 38.5348 21.08 38.5348 21.04 38.5348L20.82 38.4949C20.82 38.4949 20.78 38.4749 20.76 38.4749L20.73 38.4549C20.73 38.4549 20.66 38.5049 20.61 38.5248C20.5 38.5648 20.38 38.5448 20.28 38.4749L20.05 38.3149H20.02L19.93 38.3849C19.93 38.3849 19.83 38.4549 19.76 38.4649L19.51 38.5049C19.51 38.5049 19.48 38.5049 19.46 38.5049L19.24 38.5248C19.09 38.5448 18.95 38.4549 18.88 38.3349L18.86 38.2849C18.78 38.2549 18.72 38.2149 18.67 38.1449L18.51 37.9249C18.51 37.9249 18.45 37.8249 18.44 37.765L18.41 37.565L18.35 37.475C18.26 37.345 18.26 37.175 18.35 37.045L18.38 36.9951C18.38 36.8951 18.4 36.7851 18.48 36.7151L18.66 36.5251L18.74 36.3351C18.74 36.3351 18.78 36.2652 18.81 36.2352L18.91 36.1252V36.0652C18.91 36.0052 18.94 35.9552 18.97 35.8952L18.89 35.7852C18.84 35.7052 18.82 35.6252 18.82 35.5353V35.3153C18.84 35.2353 18.87 35.1553 18.92 35.0953L19.03 34.9653C19.03 34.9653 19.12 34.8853 19.17 34.8653L19.52 34.7254L19.55 34.6854V34.6254V34.3654L19.41 34.0954C19.39 34.0454 19.37 33.9955 19.37 33.9355L19.35 33.5055C19.35 33.4455 19.35 33.3955 19.38 33.3455L19.42 33.2656L19.34 33.1856L19.22 33.1156C19.12 33.0556 19.06 32.9656 19.04 32.8556L19 32.6056C18.86 32.5457 18.78 32.4157 18.77 32.2757L18.75 31.7258C18.75 31.7258 18.75 31.6358 18.77 31.5958L18.67 31.3158C18.65 31.2458 18.65 31.1858 18.67 31.1158L18.6 30.9559C18.57 30.8959 18.56 30.8259 18.57 30.7659L18.45 30.6659L18.28 30.5859L18.14 30.6259C18.01 30.6559 17.88 30.6259 17.79 30.5259L17.45 30.166C17.34 30.066 17.31 29.906 17.37 29.766L17.41 29.656L17.39 29.1961L17.36 29.1361C17.32 29.0561 17.32 28.9561 17.34 28.8761L17.4 28.6862H17.32C17.22 28.6862 17.13 28.6462 17.06 28.5862L16.95 28.4862H16.9H16.86C16.67 28.5562 16.45 28.4862 16.37 28.2962L16.33 28.2062L16.04 28.0662C15.98 28.0363 15.93 27.9963 15.89 27.9363C15.81 27.9363 15.73 27.8863 15.66 27.8263L15.52 27.6863L15.36 27.6563C15.25 27.6363 15.16 27.5763 15.1 27.4863C15.08 27.4563 15.07 27.4263 15.06 27.3963C14.92 27.3963 14.78 27.3163 14.72 27.1864C14.6 27.2264 14.46 27.2064 14.36 27.1264L14.05 26.8764C14.05 26.8764 13.98 26.8064 13.95 26.7664L13.83 26.5465C13.8 26.4965 13.79 26.4365 13.79 26.3665V26.1165L13.81 25.8165C13.74 25.8665 13.66 25.8965 13.58 25.8965H13.54L13.49 25.9365C13.42 25.9965 13.33 26.0265 13.24 26.0265L13.17 26.1265C13.06 26.2865 12.87 26.3465 12.7 26.2665H12.68H12.65C12.63 26.3665 12.56 26.4565 12.46 26.5065L12.38 26.5465C12.31 26.5864 12.24 26.5964 12.17 26.5864C12.17 26.6064 12.17 26.6064 12.17 26.6264L12.15 26.6764L12.23 27.0264C12.23 27.0264 12.23 27.0864 12.23 27.1164V27.5263C12.23 27.6263 12.19 27.7263 12.11 27.7863L11.91 27.9763C11.78 28.0962 11.59 28.1062 11.45 28.0163L11.29 27.9163C11.29 27.9163 11.28 27.9163 11.27 27.9163H11.22C11.16 27.9663 11.09 27.9963 11 27.9963L10.97 28.0363C10.99 28.1162 10.99 28.1862 10.96 28.2562L10.92 28.3462C10.92 28.3462 10.88 28.4162 10.86 28.4462L10.76 28.7862C10.74 28.8261 10.72 28.8861 10.68 28.9261L10.39 29.2661C10.31 29.3561 10.2 29.4061 10.08 29.4061L9.91999 29.576C9.77999 29.716 9.54999 29.736 9.39999 29.606L9.23999 29.4661C9.13999 29.3861 9.09999 29.2661 9.09999 29.1461C9.03999 29.1261 8.98999 29.1161 8.93999 29.0761L8.65999 28.8861C8.57999 28.8261 8.51999 28.7362 8.49999 28.6362V28.5862H8.48999C8.35999 28.5862 8.23999 28.5062 8.17999 28.3962L8.09999 28.2662C8.05999 28.1762 8.03999 28.0762 8.06999 27.9863C7.96999 28.0562 7.84999 28.0562 7.72999 28.0063L7.46999 27.8863C7.35999 27.9163 7.23999 27.8863 7.14999 27.8263L6.84999 27.6063C6.84999 27.6063 6.82999 27.5863 6.80999 27.5763C6.72999 27.5763 6.63999 27.5363 6.57999 27.4863L6.16999 27.1564C6.10999 27.1964 6.02999 27.2164 5.96999 27.2164H5.87999L5.82999 27.2964C5.76999 27.3863 5.65999 27.4363 5.55999 27.4463C5.44999 27.4463 5.33999 27.4163 5.26999 27.3463L5.16999 27.2464C5.07999 27.1564 5.02999 27.0264 5.06999 26.9064L5.10999 26.6964L5.18999 26.2465L5.14999 25.9865L5.00999 25.8265L4.85999 25.7066H4.70999C4.59999 25.7066 4.48999 25.6566 4.41999 25.5666L4.19999 25.2966C4.12999 25.2166 4.09999 25.1066 4.11999 24.9967L4.15999 24.7767L4.11999 24.6567C4.03999 24.6267 3.96999 24.5667 3.91999 24.4867C3.84999 24.3567 3.86999 24.2068 3.93999 24.0968L4.01999 23.9968C4.01999 23.9968 4.08999 23.9168 4.12999 23.8968C4.09999 23.7368 4.16999 23.5768 4.30999 23.4969L4.51999 23.3769L4.54999 23.3069V23.1769L4.40999 23.1169C4.33999 23.0869 4.27999 23.0369 4.24999 22.9669L4.22999 22.9369C4.12999 22.8969 4.04999 22.807 4.00999 22.707C3.96999 22.607 3.98999 22.487 4.04999 22.397L4.12999 22.277C4.12999 22.277 4.18999 22.197 4.22999 22.167H4.24999C4.20999 22.077 4.19999 21.9871 4.21999 21.9071L4.17999 21.8571C4.17999 21.8571 4.10999 21.7671 4.09999 21.7171L4.04999 21.5571C4.04999 21.5571 4.03999 21.4871 4.03999 21.4571C3.94999 21.3971 3.88999 21.2972 3.87999 21.1872V21.0872C3.87999 21.0872 3.87999 21.0472 3.87999 21.0372V21.0172L3.83999 21.0772C3.78999 21.1572 3.70999 21.2172 3.61999 21.2372L3.46999 21.2772L3.28999 21.4971L3.22999 21.5971C3.16999 21.6971 3.05999 21.7571 2.93999 21.7671C2.89999 21.4371 2.86999 21.0972 2.83999 20.7672L2.90999 20.6672C2.95999 20.5972 3.02999 20.5573 3.10999 20.5273L3.23999 20.4973L3.37999 20.2773C3.41999 20.2173 3.47999 20.1673 3.53999 20.1373L3.73999 20.0473C3.85999 19.9973 3.98999 20.0073 4.09999 20.0673C4.19999 20.1373 4.25999 20.2273 4.26999 20.3473L4.42999 20.4573C4.53999 20.5273 4.60999 20.6472 4.59999 20.7872L4.66999 20.8272C4.83999 20.9172 4.90999 21.1172 4.83999 21.2872L4.79999 21.3971L4.89999 21.5071C4.97999 21.5971 5.00999 21.7171 4.98999 21.8271C5.10999 21.9471 5.13999 22.137 5.04999 22.287L4.92999 22.487L5.04999 22.537C5.16999 22.587 5.24999 22.707 5.26999 22.8469L5.30999 23.2769C5.30999 23.3369 5.30999 23.3969 5.28999 23.4469L5.18999 23.7168C5.15999 23.7968 5.10999 23.8568 5.02999 23.9068L4.92999 23.9668C4.92999 23.9668 4.92999 24.0068 4.92999 24.0268L4.90999 24.1568C4.90999 24.2168 4.87999 24.2668 4.83999 24.3167L4.93999 24.5667C4.96999 24.6367 4.97999 24.6967 4.95999 24.7667L4.92999 24.9167H5.01999C5.09999 24.9167 5.17999 24.9367 5.24999 24.9967L5.52999 25.2166C5.52999 25.2166 5.56999 25.2566 5.58999 25.2766L5.80999 25.5566C5.85999 25.6066 5.88999 25.6666 5.88999 25.7366L5.94999 26.1565C5.94999 26.1565 5.94999 26.2365 5.94999 26.2665L5.92999 26.4165L6.12999 26.2865C6.19999 26.2465 6.26999 26.2165 6.34999 26.2165H6.42999C6.63999 26.2165 6.80999 26.3765 6.80999 26.5864V26.6464L6.93999 26.7464C7.04999 26.7464 7.15999 26.7764 7.23999 26.8464L7.38999 26.9864L7.45999 27.0364C7.53999 27.0064 7.61999 26.9964 7.68999 27.0164L7.77999 26.8264C7.85999 26.6564 8.03999 26.5764 8.21999 26.6264L8.33999 26.6664C8.40999 26.6864 8.45999 26.7164 8.49999 26.7664C8.60999 26.8064 8.69999 26.8964 8.72999 27.0064C8.83999 27.0564 8.90999 27.1464 8.92999 27.2564L8.94999 27.3563C8.95999 27.4263 8.94999 27.4963 8.92999 27.5563C8.94999 27.5963 8.94999 27.6363 8.94999 27.6863V27.8763C8.99999 27.9063 9.04999 27.9463 9.07999 27.9963L9.21999 28.2162C9.21999 28.2162 9.25999 28.2962 9.26999 28.3262L9.32999 28.3662H9.40999C9.49999 28.3662 9.57999 28.3962 9.64999 28.4462L9.80999 28.5762C9.80999 28.5762 9.84999 28.6062 9.85999 28.6262C9.90999 28.6062 9.95999 28.6062 10.01 28.6062L10.13 28.4662L10.16 28.3562C10.13 28.2862 10.13 28.1962 10.16 28.1262C10.16 28.0962 10.18 28.0762 10.19 28.0562C10.19 28.0362 10.19 28.0163 10.19 27.9963L10.17 27.8363C10.15 27.7063 10.21 27.5863 10.32 27.5063L10.46 27.3963C10.51 27.3563 10.58 27.3363 10.65 27.3263C10.71 27.2664 10.79 27.2264 10.86 27.2264C10.94 27.1264 11.05 27.0664 11.17 27.0664C11.24 27.0664 11.31 27.0864 11.37 27.1264L11.45 27.1064C11.45 27.1064 11.52 27.1064 11.55 27.1064L11.47 26.7564C11.47 26.7564 11.45 26.6564 11.47 26.6164C11.45 26.5864 11.43 26.5564 11.42 26.5165L11.32 26.2165C11.3 26.1565 11.3 26.0865 11.3 26.0265L11.32 25.8865C11.35 25.7066 11.51 25.5766 11.69 25.5766H11.79C11.9 25.5766 12.01 25.6266 12.08 25.7066C12.12 25.7066 12.16 25.6866 12.21 25.7066L12.54 25.5166C12.62 25.4666 12.7 25.4566 12.78 25.4666V25.4466C12.86 25.3466 12.97 25.2766 13.1 25.2766H13.17L13.22 25.2366C13.29 25.1866 13.37 25.1466 13.46 25.1466L13.56 24.9667C13.63 24.8567 13.75 24.7867 13.88 24.7867H14.08C14.28 24.7867 14.43 24.9267 14.46 25.1166L14.6 25.2566C14.67 25.3366 14.72 25.4366 14.71 25.5466V25.6766C14.69 25.7566 14.66 25.8265 14.62 25.8865L14.6 26.1565V26.2665L14.64 26.3365L14.71 26.3865L14.81 26.3365C14.9 26.2865 15.01 26.2865 15.1 26.3165C15.19 26.3565 15.27 26.4165 15.31 26.5165V26.5365C15.48 26.4765 15.67 26.5365 15.76 26.6964L15.86 26.8564C15.86 26.8564 15.91 26.9364 15.91 26.9864C15.93 27.0064 15.96 27.0164 15.98 27.0264L16 27.0064C16.1 26.9064 16.24 26.8764 16.37 26.9164C16.5 26.9564 16.6 27.0564 16.63 27.1864L16.7 27.4763V27.4963L16.84 27.5663C16.89 27.5863 16.94 27.6263 16.98 27.6663C17.02 27.6663 17.06 27.6663 17.08 27.6863L17.34 27.7863C17.34 27.7863 17.43 27.8263 17.47 27.8663L17.53 27.9163H17.65C17.71 27.9163 17.76 27.9263 17.81 27.9563L18.01 28.0562C18.12 28.1062 18.21 28.2162 18.22 28.3462L18.24 28.5462C18.24 28.5962 18.24 28.6462 18.23 28.7062L18.15 28.9561C18.15 28.9561 18.18 29.0561 18.18 29.0961L18.2 29.706C18.2 29.706 18.2 29.786 18.18 29.806L18.22 29.846L18.28 29.826C18.36 29.806 18.44 29.806 18.52 29.846L18.85 29.996C18.85 29.996 18.91 30.026 18.93 30.046L19.26 30.3259C19.36 30.4059 19.42 30.5459 19.39 30.6859L19.37 30.7659L19.45 30.9359C19.48 31.0159 19.49 31.0958 19.47 31.1858C19.57 31.2258 19.66 31.3258 19.69 31.4358C19.73 31.5658 19.69 31.7058 19.59 31.8057L19.54 31.8557V31.9957L19.6 32.0157C19.7 32.0557 19.79 32.1357 19.82 32.2357C19.86 32.3357 19.86 32.4457 19.8 32.5456V32.5656C19.8 32.5656 19.86 32.6056 19.88 32.6356H19.96C20.1 32.6356 20.22 32.7056 20.28 32.8156L20.34 32.9256C20.42 33.0656 20.41 33.2556 20.3 33.3755L20.18 33.5055L20.14 33.5855V33.8555L20.28 34.1254C20.3 34.1754 20.32 34.2254 20.32 34.2754L20.34 34.6554C20.34 34.6554 20.34 34.7054 20.34 34.7354L20.31 34.9353C20.29 35.0053 20.27 35.0653 20.23 35.1153L20.07 35.3053C20.03 35.3553 19.98 35.3953 19.92 35.4153L19.63 35.5252L19.8 35.7652C19.86 35.8452 19.88 35.9552 19.87 36.0452C19.85 36.1552 19.79 36.2352 19.71 36.2951L19.67 36.3251C19.67 36.4151 19.63 36.4951 19.57 36.5551L19.42 36.7151L19.34 36.9051C19.34 36.9051 19.3 36.9751 19.27 37.0051L19.17 37.115C19.17 37.165 19.15 37.215 19.13 37.275C19.15 37.305 19.15 37.335 19.16 37.375L19.19 37.575L19.21 37.595C19.31 37.615 19.4 37.675 19.45 37.765L19.55 37.745L19.68 37.635C19.75 37.575 19.84 37.535 19.94 37.545L20.22 37.565C20.29 37.565 20.36 37.595 20.42 37.635C20.52 37.595 20.62 37.595 20.72 37.635L21.04 37.765L21.17 37.7949L21.39 37.775C21.54 37.765 21.68 37.8349 21.76 37.9649L21.89 38.1849C21.89 38.1849 21.91 38.2349 21.92 38.2649L21.97 38.4349C21.97 38.4349 22 38.4549 22.01 38.4549L22.2 38.5848C22.3 38.6548 22.36 38.7548 22.36 38.8748H22.38C22.47 38.9348 22.54 39.0248 22.56 39.1248C22.58 39.2148 22.56 39.3147 22.52 39.3847L22.87 39.4847C22.93 39.5047 22.98 39.5247 23.03 39.5747L23.28 39.8147L23.44 39.9747C23.44 39.9747 23.52 40.0646 23.53 40.1146L23.59 40.3046C23.59 40.3046 23.61 40.3846 23.61 40.4246V40.4746C23.61 40.4746 23.65 40.5646 23.66 40.6146L23.75 40.5246C23.86 40.4146 24.01 40.3746 24.16 40.4246C24.26 40.4046 24.38 40.4246 24.46 40.4946L24.51 40.4746C24.61 40.4346 24.74 40.4546 24.83 40.5146C25.02 40.4946 25.2 40.6046 25.24 40.7945L25.28 40.9445C25.32 41.0645 25.28 41.1945 25.2 41.2845L25.12 41.3745V41.4445C25.12 41.4445 25.1 41.5045 25.09 41.5344C25.17 41.5145 25.25 41.5344 25.33 41.5744L25.5 41.6744H25.54C25.62 41.6744 25.71 41.7044 25.77 41.7544H25.8C25.89 41.7544 25.98 41.7744 26.05 41.8344L26.07 41.8544H26.14C26.14 41.8544 26.22 41.8744 26.26 41.8944L26.33 41.8544C26.38 41.8144 26.44 41.8044 26.5 41.7944C26.57 41.7244 26.66 41.6844 26.76 41.6744C26.84 41.6744 26.92 41.6944 26.99 41.7344L27.01 41.5844C27.01 41.5045 27.05 41.4245 27.11 41.3645L27.18 41.2945C27.18 41.2945 27.2 41.2045 27.22 41.1545C27.19 41.0545 27.2 40.9445 27.25 40.8445L27.43 40.5346C27.47 40.4646 27.54 40.4046 27.61 40.3746C27.59 40.3346 27.57 40.2746 27.57 40.2246L27.55 40.2046C27.55 40.2046 27.55 40.2046 27.55 40.1846V40.1646H27.53L27.35 40.0347C27.24 39.9547 27.18 39.8147 27.2 39.6947L27.18 39.6547C27.13 39.5747 27.11 39.4747 27.13 39.3747L27.16 39.2348C27.18 39.1548 27.21 39.1048 27.26 39.0448C27.26 39.0048 27.28 38.9748 27.3 38.9348C27.3 38.8348 27.35 38.7248 27.42 38.6548L27.55 38.5348L27.57 38.4749C27.57 38.4749 27.59 38.4249 27.6 38.3949C27.57 38.2249 27.64 38.0649 27.77 37.9849L27.72 37.8849C27.72 37.8849 27.67 37.785 27.67 37.735L27.65 37.375C27.65 37.285 27.67 37.185 27.73 37.115L27.83 36.9851L27.81 36.9251C27.79 36.8551 27.81 36.7651 27.84 36.6951L27.98 36.4151C27.98 36.4151 28 36.3851 28 36.3751V36.3551L27.98 36.2552C27.96 36.1452 28 36.0352 28.07 35.9552C28.09 35.8852 28.14 35.8152 28.2 35.7652C28.2 35.7252 28.22 35.7052 28.24 35.6752L28.28 35.6252C28.36 35.5253 28.47 35.4653 28.59 35.4653H28.65C28.74 35.4653 28.82 35.5053 28.89 35.5552C28.98 35.5752 29.05 35.6252 29.11 35.6952C29.19 35.6952 29.25 35.7352 29.31 35.7752L29.4 35.6252C29.4 35.6252 29.44 35.5752 29.46 35.5452L29.81 35.1853C29.81 35.1853 29.83 35.1753 29.83 35.1653C29.83 35.1353 29.83 35.1153 29.83 35.0853V34.9553C29.86 34.8553 29.91 34.7754 29.98 34.7154L30.32 34.4454C30.32 34.4454 30.28 34.4454 30.25 34.4254L30.15 34.3954C30.09 34.3754 30.03 34.3454 29.98 34.2954L29.82 34.1254C29.77 34.0754 29.74 34.0255 29.73 33.9655C29.7 33.9455 29.67 33.9255 29.64 33.9055L29.48 33.7655C29.4 33.7555 29.32 33.7055 29.27 33.6355L29.13 33.4755C29.13 33.4755 29.08 33.4055 29.06 33.3555L29.01 33.1956C28.97 33.0856 29.01 32.9456 29.08 32.8556L29.16 32.7656C29.16 32.7656 29.24 32.6856 29.3 32.6656C29.32 32.6256 29.34 32.5856 29.38 32.5656C29.4 32.4957 29.44 32.4257 29.49 32.3757V32.3557L29.53 32.1757C29.55 32.0957 29.58 32.0257 29.64 31.9757L29.5 31.8057C29.45 31.7458 29.42 31.6658 29.42 31.5858V31.3758C29.42 31.2158 29.52 31.0858 29.66 31.0259L29.71 31.0059C29.75 30.8959 29.82 30.8059 29.93 30.7759L30.14 30.6959C30.19 30.6759 30.26 30.6659 30.32 30.6759L30.4 30.5459C30.38 30.4859 30.38 30.4159 30.4 30.3559L30.44 30.166C30.46 30.086 30.49 30.026 30.55 29.976L30.66 29.866C30.71 29.826 30.78 29.786 30.86 29.776H30.88L30.97 29.706C30.99 29.626 31.02 29.546 31.09 29.4861L31.47 29.1461L31.53 29.0461C31.56 28.9961 31.6 28.9461 31.66 28.9061L31.79 28.8261C31.79 28.8261 31.81 28.8161 31.83 28.8061C31.86 28.7762 31.9 28.7562 31.93 28.7262L32.03 28.6762C32.06 28.6062 32.12 28.5462 32.19 28.5162L32.42 28.3862C32.53 28.3262 32.65 28.3262 32.76 28.3862C32.84 28.4262 32.9 28.4862 32.93 28.5562L33.01 28.6062L33.27 28.7462C33.37 28.7962 33.44 28.9061 33.46 29.0161L33.48 29.0861L33.68 29.3761L33.82 29.4361C33.9 29.4661 33.96 29.5161 33.99 29.576H34.09C34.18 29.606 34.26 29.646 34.32 29.726L34.46 29.956C34.52 30.026 34.54 30.116 34.54 30.206V30.286C34.58 30.236 34.63 30.196 34.69 30.166L34.84 30.096H34.86C34.91 30.026 34.99 29.966 35.07 29.946V29.926C35.07 29.806 35.11 29.676 35.21 29.606L35.34 29.5061C35.36 29.3961 35.43 29.2961 35.53 29.2461L35.91 29.0261C36 28.9761 36.1 28.9661 36.19 28.9861C36.21 28.9861 36.22 28.9661 36.24 28.9661L36.39 28.8961C36.37 28.7961 36.39 28.6762 36.47 28.5862L36.65 28.3662C36.73 28.2762 36.84 28.2262 36.95 28.2262L37.09 28.1162C37.09 28.1162 37.17 28.0662 37.22 28.0463L37.36 27.8763L37.41 27.7763C37.41 27.7763 37.47 27.6863 37.52 27.6563C37.8 27.4563 37.82 27.4363 37.85 27.4263C37.87 27.4263 37.9 27.4063 37.93 27.3963L38.09 27.0764V26.9164C38.07 26.7864 38.13 26.6664 38.24 26.5964L38.56 26.3765C38.56 26.3765 38.61 26.3365 38.64 26.3365C38.65 26.2865 38.68 26.2565 38.68 26.2365C38.72 26.1665 38.76 26.1165 39.02 25.9565L39.13 25.7366C39.13 25.7366 39.17 25.6666 39.2 25.6366L39.31 25.5366V25.4966C39.31 25.3866 39.36 25.2866 39.44 25.2166L39.6 25.0866C39.66 25.0367 39.74 25.0067 39.82 24.9967C39.84 24.9767 39.86 24.9767 39.88 24.9667L40.07 24.8967C40.18 24.8567 40.3 24.8767 40.4 24.9367L40.67 25.1066C40.73 25.1466 40.78 25.1966 40.81 25.2666L40.95 25.5466C40.95 25.5466 40.97 25.5966 40.98 25.6266C41.01 25.6466 41.03 25.6666 41.06 25.6966C41.1 25.7166 41.14 25.7466 41.17 25.7766L41.27 25.9065C41.34 25.9465 41.39 25.9965 41.43 26.0665L41.48 26.1665L41.53 26.1865C41.53 26.1865 41.57 26.0965 41.6 26.0565V26.0065L41.56 25.9465C41.47 25.8165 41.48 25.6366 41.58 25.5066C41.58 25.3166 41.6 25.2866 41.6 25.2666C41.6 25.2066 41.63 25.1466 41.69 25.0666L41.66 24.9767L41.58 24.8267C41.5 24.6867 41.52 24.5267 41.62 24.4067L41.76 24.2468C41.81 24.1868 41.86 24.1468 41.93 24.1268C41.93 24.0468 41.97 23.9668 42.02 23.9068C42.02 23.8968 42 23.8768 41.99 23.8668L41.91 23.7268C41.85 23.6268 41.84 23.5169 41.88 23.4169C41.88 23.3669 41.91 23.3369 41.94 23.3069C41.96 23.2069 42.02 23.1269 42.09 23.0769L42.21 22.9969C42.28 22.9569 42.35 22.9269 42.43 22.9269H42.53L42.57 22.8769L42.38 22.657C42.38 22.657 42.38 22.637 42.36 22.637C42.34 22.617 42.31 22.607 42.28 22.587L42.22 22.537C42.13 22.467 42.09 22.357 42.09 22.257C42.07 22.257 42.07 22.257 42.06 22.237L41.82 22.087C41.72 22.0271 41.66 21.9271 41.65 21.8071L41.63 21.7071V21.6571C41.55 21.6171 41.49 21.5671 41.46 21.4871L41.44 21.4471H41.4C41.3 21.4171 41.2 21.3371 41.15 21.2472C41.13 21.2472 41.11 21.2272 41.09 21.2272L40.94 21.1672C40.94 21.1672 40.89 21.1472 40.86 21.1272L40.57 21.1072C40.48 21.1072 40.39 21.0572 40.33 20.9972L40.27 20.9272L40.2 20.9072C40.12 20.8772 40.04 20.8272 39.99 20.7472L39.88 20.5772C39.88 20.5772 39.82 20.5473 39.8 20.5373L39.74 20.4973H39.63C39.51 20.5073 39.39 20.4573 39.31 20.3673H39.28L39.15 20.3873C38.98 20.4073 38.81 20.3273 38.74 20.1673L38.71 20.0973C38.67 20.0073 38.67 19.9073 38.71 19.8074L38.8 19.5774C38.77 19.4474 38.82 19.3174 38.91 19.2274L38.99 19.1474C38.99 19.1474 39.09 19.0675 39.15 19.0575C39.19 19.0075 39.25 18.9575 39.33 18.8775C39.35 18.8475 39.38 18.8275 39.42 18.8075L39.72 18.6575C39.82 18.6175 39.92 18.6075 40.02 18.6375V18.5675C40.02 18.4875 40.05 18.4075 40.09 18.3475L40.11 18.3275L40.14 18.1876C40.15 18.0976 40.2 18.0276 40.27 17.9676L40.34 17.9176C40.34 17.9176 40.32 17.8576 40.32 17.8276V17.7576C40.32 17.6576 40.36 17.5577 40.43 17.4877L40.49 17.4277C40.49 17.3377 40.54 17.2577 40.6 17.1877C40.55 17.0777 40.54 17.0277 40.53 16.9977C40.53 16.9577 40.53 16.8677 40.51 16.7878L40.43 16.6178C40.4 16.5378 40.39 16.4478 40.41 16.3678L40.45 16.2378C40.49 16.0978 40.6 15.9979 40.74 15.9779L40.82 15.9579L40.98 15.8179C40.98 15.8179 41.03 15.7879 41.06 15.7779L40.99 15.7379C40.99 15.7379 40.95 15.7179 40.93 15.6979C40.83 15.7279 40.71 15.7179 40.62 15.6579L40.39 15.5179C40.34 15.4879 40.29 15.4379 40.26 15.3879C40.18 15.3479 40.11 15.288 40.07 15.208L39.96 14.968C39.91 14.858 39.92 14.718 39.98 14.608L40.04 14.5081C40.04 14.5081 40.06 14.4881 40.07 14.4681C39.96 14.4281 39.87 14.3281 39.84 14.2081C39.82 14.1481 39.82 14.1081 39.81 14.0681C39.7 14.0681 39.59 14.0281 39.52 13.9281L39.47 13.8581C39.39 13.7682 39.37 13.6382 39.39 13.5282C39.42 13.4182 39.49 13.3382 39.59 13.2882C39.59 13.2482 39.62 13.2082 39.64 13.1682L39.75 13.0083C39.7 12.9483 39.68 12.8683 39.68 12.7883C39.68 12.6783 39.73 12.5783 39.82 12.5083L39.86 12.4683C39.86 12.4083 39.86 12.3583 39.86 12.3084C39.83 12.2584 39.81 12.1984 39.8 12.1384L39.78 12.0284C39.78 11.9584 39.78 11.8884 39.81 11.8384L39.9 11.6384C39.94 11.5385 40.04 11.4685 40.14 11.4385H40.18L40.22 11.3485C40.26 11.2785 40.32 11.2185 40.4 11.1885L40.48 11.1585C40.48 11.1585 40.55 11.1485 40.58 11.1385L40.68 11.1185L40.77 11.0885L40.9 11.0085C40.9 11.0085 40.96 10.9885 40.99 10.9785C41.11 11.2385 41.22 11.5085 41.33 11.7784C41.29 11.7984 41.24 11.8184 41.19 11.8284L41.12 11.8684C41.12 11.8684 41.06 11.8984 41.03 11.9084L40.87 11.9484C40.87 11.9484 40.83 11.9484 40.82 11.9484L40.78 12.0184C40.75 12.0784 40.71 12.1184 40.65 12.1484C40.72 12.2684 40.72 12.4183 40.65 12.5483L40.63 12.5883V12.6583C40.65 12.7883 40.61 12.9083 40.52 12.9883V13.2082C40.52 13.2882 40.5 13.3582 40.45 13.4182L40.42 13.4582L40.44 13.4782C40.53 13.5182 40.6 13.6082 40.63 13.6982C40.65 13.7782 40.65 13.8781 40.61 13.9581L40.67 13.9781C40.75 14.0081 40.82 14.0781 40.87 14.1481L40.96 14.3081C41.02 14.4181 41.02 14.5481 40.96 14.658L40.91 14.748L40.89 14.868C40.89 14.868 40.87 14.918 40.87 14.948C40.87 14.948 40.87 14.948 40.87 14.968C40.97 14.938 41.07 14.948 41.15 14.988C41.19 15.008 41.23 15.028 41.26 15.038C41.36 15.068 41.43 15.128 41.48 15.208L41.61 15.278H41.65C41.83 15.278 41.97 15.4079 42 15.5879L42.02 15.7279C42.04 15.8279 42.02 15.9179 41.96 16.0079C41.96 16.1578 41.89 16.2978 41.74 16.3578L41.68 16.3878L41.64 16.4478C41.56 16.5478 41.44 16.5978 41.31 16.5878L41.23 16.6478C41.23 16.6478 41.25 16.7078 41.25 16.7378C41.25 16.7978 41.27 16.8677 41.27 16.9177C41.28 16.9377 41.29 16.9477 41.3 16.9677C41.34 17.0277 41.36 17.0977 41.36 17.1677V17.4477C41.36 17.5477 41.32 17.6476 41.24 17.7176C41.22 17.7876 41.19 17.8676 41.13 17.9276H41.11V17.9676C41.13 18.0376 41.13 18.1076 41.11 18.1776L41.08 18.2776C41.05 18.3975 40.95 18.4975 40.83 18.5275V18.6075C40.8 18.6575 40.79 18.7075 40.76 18.7475V18.8175C40.86 18.9075 40.92 19.0475 40.89 19.1874C40.85 19.3474 40.72 19.4674 40.56 19.4774H40.44C40.44 19.4774 40.37 19.4974 40.33 19.4774C40.26 19.4974 40.2 19.5074 40.14 19.4974L39.9 19.4574L39.81 19.4974C39.75 19.5574 39.68 19.6274 39.66 19.6574C39.66 19.6774 39.64 19.6974 39.62 19.7074H39.63C39.63 19.7074 39.7 19.7374 39.73 19.7474C39.77 19.7474 39.81 19.7474 39.84 19.7674L40.05 19.8373C40.05 19.8373 40.11 19.8573 40.14 19.8873C40.24 19.9073 40.34 19.9673 40.4 20.0573L40.52 20.2473H40.56C40.62 20.2773 40.68 20.3173 40.72 20.3573L40.75 20.3973H40.82L40.9 20.3673C40.98 20.3273 41.07 20.3173 41.16 20.3473L41.2 20.3673C41.28 20.3873 41.35 20.4473 41.4 20.4973C41.45 20.4973 41.5 20.5173 41.54 20.5473L41.62 20.5872C41.62 20.5872 41.67 20.6272 41.69 20.6472C41.79 20.6672 41.88 20.7372 41.93 20.8372L41.98 20.9372C42.05 20.9572 42.11 20.9972 42.16 21.0472L42.36 21.2572C42.43 21.3371 42.46 21.4271 42.46 21.5271V21.5671C42.55 21.5871 42.64 21.6371 42.69 21.7171L42.77 21.8371C42.77 21.8371 42.82 21.9171 42.83 21.9671L42.85 22.0171C42.94 22.077 43 22.177 43.01 22.297L43.3 22.637C43.4 22.767 43.41 22.9469 43.32 23.0969L43.3 23.0369ZM3.04999 16.7378H3.09999C3.17999 16.7378 3.23999 16.7178 3.29999 16.6878C3.32999 16.7078 3.36999 16.7278 3.39999 16.7378L3.54999 16.7778C3.62999 16.7978 3.69999 16.7978 3.76999 16.7778H3.79999H3.81999C3.89999 16.7778 3.98999 16.7478 4.04999 16.6978L4.28999 16.5078C4.28999 16.5078 4.36999 16.4278 4.39999 16.3778C4.39999 16.3778 4.41999 16.3578 4.42999 16.3578L4.51999 16.2578C4.51999 16.2578 4.57999 16.2278 4.60999 16.2078L4.75999 16.0779L4.81999 16.0579L4.91999 16.0878C4.91999 16.0878 4.95999 16.1078 4.96999 16.1278L4.92999 16.2278C4.92999 16.2278 4.90999 16.2678 4.90999 16.2878V16.3078C4.90999 16.3078 4.83999 16.4078 4.82999 16.4678L4.78999 16.6378C4.76999 16.7278 4.78999 16.8178 4.82999 16.8877C4.82999 16.9377 4.84999 16.9877 4.87999 17.0177L4.96999 17.1577C4.91999 17.2277 4.88999 17.3077 4.87999 17.3877L4.85999 17.5477C4.85999 17.6276 4.87999 17.7076 4.91999 17.7776L4.93999 17.8376C4.93999 17.8376 4.95999 17.9076 4.97999 17.9476V18.0376C4.99999 18.1076 5.01999 18.1676 5.05999 18.2276L5.12999 18.3275C5.16999 18.3775 5.20999 18.4175 5.26999 18.4375L5.31999 18.4675C5.31999 18.4675 5.37999 18.5475 5.42999 18.5675C5.42999 18.5775 5.42999 18.5875 5.44999 18.6075C5.44999 18.6275 5.44999 18.6375 5.44999 18.6475C5.44999 18.6675 5.44999 18.6875 5.43999 18.7175L5.40999 18.9875C5.32999 19.0475 5.26999 19.1274 5.24999 19.2274L5.19999 19.4374L5.17999 19.5074C5.17999 19.5074 5.15999 19.5874 5.15999 19.6374V19.8074C5.15999 19.8873 5.17999 19.9673 5.21999 20.0373L5.34999 20.2073C5.40999 20.2873 5.48999 20.3473 5.58999 20.3573H5.66999L5.68999 20.3873C5.75999 20.4573 5.84999 20.4973 5.94999 20.4973H6.04999C6.17999 20.4973 6.28999 20.4373 6.35999 20.3373L6.37999 20.2973L6.51999 20.2673C6.59999 20.2473 6.66999 20.2173 6.71999 20.1573L6.81999 20.0473C6.88999 19.9773 6.91999 19.8773 6.91999 19.7774V19.5674L7.00999 19.4574L7.20999 19.6574C7.25999 19.7174 7.33999 19.7574 7.40999 19.7674L7.67999 19.8174C7.67999 19.8174 7.72999 19.8174 7.74999 19.8174H7.86999L7.88999 20.1573C7.88999 20.1573 7.88999 20.2373 7.90999 20.2673L8.00999 20.5373C8.04999 20.6272 8.10999 20.6972 8.20999 20.7372L8.66999 20.9372C8.76999 20.9872 8.87999 20.9872 8.96999 20.9372C8.98999 20.9372 9.00999 20.9172 9.02999 20.9072C9.10999 20.9872 9.20999 21.0172 9.31999 21.0072L9.45999 20.9872L9.49999 21.0672L9.63999 21.5671L9.65999 21.8271C9.65999 21.9271 9.69999 22.0171 9.76999 22.077L9.97999 22.277C9.97999 22.277 10.04 22.327 10.08 22.347V22.377C10.11 22.427 10.14 22.477 10.18 22.517L10.27 22.597C10.35 22.677 10.46 22.697 10.56 22.697C10.66 22.687 10.76 22.627 10.82 22.537L10.85 22.497L11.01 22.427C11.01 22.427 11.04 22.407 11.05 22.407L11.11 22.377L11.3 22.477C11.36 22.507 11.43 22.527 11.5 22.517L11.93 22.497V22.547C11.93 22.657 11.97 22.767 12.07 22.8269L12.17 22.9169C12.22 22.9669 12.27 22.9869 12.34 22.9969L12.51 23.0269C12.65 23.0469 12.79 23.0069 12.87 22.8969L12.93 22.8169L13.29 22.607C13.31 22.677 13.35 22.747 13.41 22.787L13.56 22.9169C13.71 23.0469 13.93 23.0369 14.07 22.8969L14.16 22.8069C14.27 22.697 14.3 22.537 14.24 22.397L14.46 22.077C14.5 22.0271 14.52 21.9671 14.52 21.8971V21.7871C14.52 21.7871 14.57 21.7871 14.59 21.7871H14.9L15.07 21.8371C15.18 21.8771 15.3 21.8671 15.39 21.8071L15.51 21.9571C15.51 21.9571 15.55 21.9971 15.58 22.0271L15.71 22.127C15.71 22.127 15.76 22.167 15.79 22.167L15.99 22.247V22.287C15.96 22.417 15.99 22.567 16.1 22.657L16.27 22.8169C16.34 22.8769 16.42 22.9169 16.51 22.9169H16.61C16.7 22.9369 16.79 22.8969 16.86 22.8369L16.99 22.737C17.06 22.687 17.11 22.597 17.13 22.517L17.16 22.377L17.21 22.327C17.27 22.267 17.31 22.197 17.32 22.107L17.36 21.8071C17.36 21.8071 17.36 21.7671 17.36 21.7471C17.39 21.6971 17.41 21.6371 17.41 21.5871L17.43 21.3971C17.43 21.3071 17.41 21.2172 17.36 21.1472C17.36 21.1472 17.36 21.1405 17.36 21.1272L17.43 20.8772C17.43 20.8772 17.43 20.8572 17.43 20.8372L17.47 20.5872L17.64 20.3173C17.64 20.3173 17.66 20.2673 17.68 20.2373L17.73 20.0873C17.82 20.0073 17.87 19.8873 17.85 19.7674L17.81 19.4774C17.81 19.4274 17.79 19.3774 17.76 19.3274L17.66 19.1674C17.6 19.0675 17.5 19.0075 17.39 18.9975L17.28 18.9775H17.26V18.9475C17.26 18.9475 17.26 18.8975 17.24 18.8675L17.28 18.8275C17.33 18.8275 17.38 18.7975 17.42 18.7675L17.55 18.6775C17.55 18.6775 17.62 18.6175 17.65 18.5775L17.75 18.4375C17.75 18.4375 17.77 18.4175 17.77 18.3975L17.93 18.0976C17.93 18.0976 17.97 18.0176 17.97 17.9676L18 17.7676C18 17.7676 18 17.7176 18 17.6876C18.02 17.6476 18.03 17.5876 18.03 17.5377V17.4977C18.07 17.4377 18.09 17.3677 18.09 17.2977C18.09 17.2977 18.11 17.2977 18.11 17.2877L18.19 17.2377L18.45 17.1077C18.53 17.0677 18.6 16.9977 18.63 16.9077V16.8877C18.63 16.8877 18.7 16.8477 18.72 16.8178L18.83 16.6878C18.83 16.6878 18.86 16.6478 18.87 16.6278L18.94 16.5178L19.04 16.3978C19.04 16.3978 19.08 16.3378 19.09 16.3078L19.13 16.2178C19.13 16.2178 19.15 16.1578 19.15 16.1178V16.0579L19.17 16.0379C19.2 15.9979 19.21 15.9379 19.22 15.8779V15.8579L19.31 15.7779C19.31 15.7779 19.39 15.6979 19.4 15.6379L19.42 15.5879L19.59 15.6879C19.65 15.7279 19.72 15.7379 19.78 15.7379L19.95 15.9079C19.95 15.9079 20.04 15.9779 20.09 15.9979L20.17 16.0279L20.28 16.1078C20.28 16.1078 20.38 16.1578 20.44 16.1678L20.66 16.1978H20.67L20.76 16.2878C20.78 16.3378 20.8 16.3878 20.84 16.4178L20.95 16.5578C20.95 16.5578 20.99 16.6078 21.01 16.6178L21.06 16.6578C21.06 16.7578 21.1 16.8577 21.18 16.9177L21.23 16.9577L21.25 16.9777C21.27 17.0477 21.29 17.1077 21.34 17.1477L21.38 17.1877L21.36 17.2077C21.32 17.2677 21.29 17.3477 21.29 17.4277V17.5876C21.25 17.6476 21.22 17.7176 21.22 17.7876V17.8476C21.22 17.8476 21.14 17.9476 21.12 18.0176L21.09 18.1176C21.09 18.1176 21.07 18.1976 21.07 18.2376C21.05 18.2576 21.03 18.2876 21.01 18.3176L20.95 18.4275C20.91 18.5075 20.91 18.5775 20.91 18.6475C20.91 18.6475 20.86 18.6975 20.83 18.7275H20.75C20.65 18.6975 20.55 18.7175 20.48 18.7675L20.3 18.8875L20.21 18.9075C20.11 18.9275 20.03 18.9875 19.98 19.0675L19.91 19.1674C19.85 19.2674 19.84 19.3774 19.87 19.4774C19.85 19.5074 19.83 19.5474 19.82 19.5874L19.8 19.6474C19.8 19.6474 19.78 19.7074 19.78 19.7374C19.72 19.8074 19.69 19.8973 19.7 19.9873V20.0073L19.62 20.1273C19.56 20.2073 19.54 20.3173 19.56 20.4073L19.6 20.6072C19.63 20.7672 19.75 20.8872 19.91 20.9172H19.95L20.11 21.1272C20.15 21.1772 20.22 21.2272 20.29 21.2472C20.29 21.2672 20.29 21.2872 20.31 21.3172V21.3371C20.29 21.4371 20.31 21.5371 20.36 21.6271L20.44 21.7471C20.54 21.9071 20.75 21.9571 20.91 21.8771L20.96 21.8971L21.12 21.9571L21.14 21.9771C21.2 22.0671 21.3 22.127 21.41 22.137C21.52 22.137 21.63 22.107 21.7 22.0271L21.92 21.8171C22 21.7471 22.03 21.6471 22.03 21.5371V21.4971L22.16 21.2972L22.21 21.2672C22.29 21.2172 22.35 21.1272 22.37 21.0272L22.43 20.7372L22.46 20.7072C22.53 20.6272 22.56 20.5273 22.56 20.4273C22.56 20.3973 22.56 20.3673 22.54 20.3373L22.62 20.3173C22.62 20.3173 22.71 20.3373 22.76 20.3373H23.18C23.18 20.3373 23.25 20.3373 23.29 20.3173L23.55 20.2473C23.62 20.2273 23.69 20.1873 23.73 20.1373L23.89 19.9573C23.89 19.9573 23.96 19.8573 23.97 19.7974L23.99 19.6974C24 19.6474 23.99 19.5874 23.99 19.5374C24.04 19.4974 24.07 19.4374 24.09 19.3574V19.3174C24.14 19.2774 24.17 19.2174 24.19 19.1574L24.25 18.9475C24.33 18.9275 24.4 18.8875 24.46 18.8375L24.72 18.5775C24.72 18.5775 24.8 18.4775 24.81 18.4275C24.87 18.3775 24.92 18.3176 24.95 18.2476L25 18.1076C25 18.1076 25.02 18.0476 25.02 18.0076C25.04 17.9776 25.05 17.9476 25.06 17.9176C25.09 17.8076 25.06 17.6976 25.01 17.5976L25.14 17.4977H25.2C25.23 17.5377 25.27 17.5677 25.3 17.5976L25.46 17.6976C25.46 17.8076 25.52 17.9176 25.62 17.9776L25.82 18.1176C25.88 18.1576 25.96 18.1876 26.03 18.1876H26.73C26.81 18.1876 26.87 18.1676 26.94 18.1376L26.98 18.1176L27.17 18.2576C27.31 18.3575 27.5 18.3575 27.64 18.2376L27.74 18.1476C27.81 18.0876 27.86 18.0076 27.87 17.9176C27.93 17.9676 28.01 17.9976 28.09 17.9976H28.26C28.26 17.9976 28.29 18.0276 28.31 18.0376L28.42 18.0876C28.52 18.1276 28.64 18.1276 28.75 18.0676C28.83 18.0276 28.89 17.9476 28.93 17.8676C29 17.8176 29.04 17.7376 29.07 17.6476C29.12 17.6176 29.17 17.5777 29.2 17.5277L29.33 17.3277C29.37 17.2677 29.39 17.1977 29.39 17.1377C29.45 17.0877 29.49 17.0177 29.5 16.9377H29.51C29.65 16.9077 29.77 16.8078 29.81 16.6778L29.87 16.4878C29.87 16.4878 29.89 16.3978 29.89 16.3578L29.93 16.2478C29.93 16.2478 29.96 16.1578 29.96 16.1078C29.96 16.0978 29.97 16.0679 29.98 16.0579C30.03 16.0179 30.06 15.9679 30.09 15.9079L30.14 15.8679C30.14 15.8679 30.22 15.7979 30.24 15.7579L30.32 15.7179C30.41 15.6679 30.48 15.5879 30.5 15.4779C30.5 15.4479 30.5 15.4279 30.5 15.3979C30.58 15.3779 30.64 15.3479 30.7 15.298L30.86 15.138C30.86 15.138 30.88 15.128 30.88 15.118H31.04C31.16 15.128 31.29 15.078 31.36 14.978L31.44 14.878C31.44 14.878 31.48 14.818 31.49 14.778H31.59C31.68 14.798 31.77 14.758 31.84 14.698L31.86 14.678L31.96 14.658C32.07 14.638 32.15 14.5681 32.2 14.4781L32.29 14.3081C32.32 14.2481 32.34 14.1781 32.33 14.1081L32.35 14.0881C32.44 13.9981 32.48 13.8781 32.46 13.7582L32.49 13.7182C32.53 13.6582 32.57 13.5882 32.57 13.5182V13.4682C32.57 13.4682 32.59 13.4482 32.6 13.4482C32.62 13.4482 32.64 13.4682 32.66 13.4682L32.8 13.5082C32.98 13.5582 33.18 13.4682 33.25 13.2882L33.3 13.1782H33.32C33.32 13.1782 33.42 13.1682 33.46 13.1582L33.54 13.1382C33.65 13.1082 33.74 13.0283 33.79 12.9283L33.84 12.8083C33.88 12.7283 33.88 12.6183 33.86 12.5383L33.78 12.3184L33.8 12.1584C33.84 12.0984 33.87 12.0284 33.88 11.9584V11.9384C33.94 11.9384 34 11.9184 34.06 11.8784C34.16 11.8184 34.22 11.7184 34.23 11.5984V11.5085C34.24 11.4085 34.21 11.2985 34.14 11.2285L34.12 11.2085V11.1885C34.11 11.0185 33.97 10.8785 33.8 10.8486H33.76L33.87 10.7986C34.03 10.7386 34.12 10.5886 34.11 10.4286C34.15 10.3786 34.18 10.3186 34.2 10.2486L34.22 10.1586C34.24 10.0887 34.22 10.0187 34.2 9.95867L34.15 9.82869C34.13 9.77869 34.1 9.7287 34.06 9.6987V9.66871C34.06 9.56872 34.03 9.47873 33.97 9.40874L33.95 9.19877L34.01 9.0188V8.9988L34.03 8.92881L34.07 8.90881C34.16 8.84882 34.23 8.75883 34.24 8.65884L34.26 8.58885C34.28 8.45887 34.24 8.32889 34.13 8.2489L33.99 8.12891C34.04 8.03893 34.05 7.93894 34.02 7.84895L34 7.78896C33.97 7.68897 33.9 7.59898 33.8 7.55899C33.71 7.51899 33.61 7.509 33.52 7.53899C33.5 7.53899 33.5 7.53899 33.48 7.53899H33.37V7.52899C33.34 7.509 33.31 7.489 33.28 7.479C33.29 7.28903 33.28 7.15904 33.19 7.04906C33.13 6.97907 33.06 6.94907 32.97 6.92907C32.93 6.92907 32.84 6.88908 32.75 6.86908C32.73 6.86908 32.71 6.86908 32.69 6.85908L32.82 6.82909C32.89 6.81909 32.96 6.77909 33 6.7291C33.02 6.7391 33.04 6.7491 33.06 6.7691L33.14 6.80909C33.17 6.89908 33.23 6.96907 33.31 7.01906L33.6 7.17904C33.6 7.17904 33.7 7.21903 33.75 7.21903C33.79 7.25903 33.83 7.28903 33.88 7.30902C33.88 7.34902 33.91 7.37901 33.93 7.40901L34.2 7.80896C34.2 7.89894 34.23 7.97893 34.29 8.04892L34.33 8.29889C34.33 8.36888 34.37 8.42887 34.42 8.48887C34.43 8.55886 34.46 8.61885 34.51 8.65884L34.56 8.70884V8.72883C34.56 8.83882 34.61 8.9488 34.7 9.02879L35 9.27876C35.07 9.33875 35.15 9.36875 35.24 9.36875H35.44C35.49 9.36875 35.55 9.36875 35.59 9.33875L35.71 9.28876H35.73C35.78 9.28876 35.83 9.27876 35.88 9.24876L36.31 9.02879C36.38 8.9888 36.43 8.9388 36.47 8.86881L36.55 8.70884L36.74 8.51886L36.99 8.41887H37.09C37.09 8.41887 37.17 8.41887 37.21 8.39888L37.27 8.37888H37.32C37.37 8.37888 37.42 8.37888 37.47 8.34888L37.62 8.27889C37.76 8.2189 37.84 8.08892 37.84 7.93894V7.85895C37.84 7.69897 37.74 7.56899 37.6 7.509H37.58V7.39901C37.64 7.35902 37.68 7.28903 37.7 7.21903L37.77 6.94907C37.81 6.82909 37.77 6.6991 37.7 6.59912L37.61 6.49913C37.61 6.49913 37.69 6.44914 37.72 6.41914L37.94 6.21917C38.01 6.14918 38.05 6.06919 38.06 5.9692L38.08 5.72923L38.17 5.69924C38.02 5.44927 37.86 5.2093 37.71 4.95934C37.71 4.95934 37.7 4.96934 37.69 4.97933L37.67 5.02933C37.59 5.05932 37.52 5.10932 37.47 5.17931L37.37 5.33929C37.33 5.38928 37.32 5.44927 37.31 5.51926L37.29 5.71924C37.2 5.72923 37.12 5.77923 37.06 5.84922L36.94 5.9792C36.89 6.03919 36.86 6.11918 36.85 6.19917V6.23917C36.82 6.29916 36.81 6.36915 36.81 6.42914V6.55912C36.83 6.63911 36.85 6.7191 36.91 6.78909L36.97 6.85908L36.9 6.90908C36.84 6.95907 36.79 7.02906 36.77 7.09905L36.74 7.19904C36.7 7.32902 36.74 7.449 36.82 7.53899V7.60898C36.82 7.60898 36.76 7.62898 36.73 7.62898L36.36 7.78896C36.36 7.78896 36.28 7.82895 36.25 7.85895L35.96 8.13891C35.96 8.13891 35.91 8.1989 35.88 8.2389L35.82 8.34888L35.56 8.47887C35.56 8.47887 35.48 8.49886 35.44 8.50886L35.34 8.54886L35.29 8.50886C35.29 8.40888 35.25 8.31889 35.18 8.2489L35.11 8.17891C35.09 8.12891 35.06 8.07892 35.03 8.03893L34.99 7.75896C34.99 7.70897 34.96 7.65898 34.93 7.60898C34.93 7.53899 34.91 7.479 34.87 7.41901L34.61 7.02906C34.61 6.95907 34.59 6.87908 34.54 6.80909L34.46 6.7091C34.42 6.64911 34.36 6.59912 34.28 6.57912C34.21 6.41914 34.04 6.32915 33.87 6.35915C33.87 6.32915 33.85 6.29916 33.83 6.27916C33.78 6.18917 33.68 6.11918 33.57 6.10918H33.53C33.48 5.9492 33.33 5.82922 33.17 5.82922H32.97C32.97 5.82922 32.93 5.82922 32.9 5.82922C32.9 5.82922 32.88 5.82922 32.87 5.82922C32.76 5.80922 32.66 5.82922 32.58 5.88921L32.44 5.9892C32.44 5.9892 32.39 6.02919 32.37 6.04919C32.33 6.05919 32.3 6.07919 32.27 6.09918L31.95 6.32915C31.85 6.39914 31.79 6.52913 31.8 6.66911V6.7091C31.8 6.7091 31.82 6.78909 31.84 6.82909C31.78 6.96907 31.8 7.13905 31.92 7.24903L32.11 7.43901C32.19 7.519 32.31 7.55899 32.42 7.53899H32.48C32.48 7.53899 32.5 7.63898 32.53 7.67897L32.67 7.90894C32.72 7.99893 32.81 8.06892 32.91 8.08892V8.10892C32.99 8.1989 33.08 8.2489 33.19 8.2589H33.22V8.32889C33.24 8.39888 33.27 8.46887 33.33 8.51886V8.53886L33.27 8.72883L33.19 8.9788C33.19 8.9788 33.17 9.07879 33.17 9.12878L33.2 9.56872C33.2 9.63871 33.23 9.7087 33.27 9.7587V9.82869C33.27 9.91867 33.29 10.0087 33.35 10.0787C33.33 10.1086 33.31 10.1486 33.3 10.1786H33.28C33.17 10.2286 33.08 10.3286 33.05 10.4486L32.99 10.7286C32.99 10.7286 32.99 10.7986 32.99 10.8286V11.0485C33.01 11.1685 33.06 11.2685 33.16 11.3385L33.24 11.3985C33.2 11.4585 33.17 11.5285 33.16 11.5984L33.14 11.7284C33.09 11.7884 33.06 11.8584 33.06 11.9284L33.02 12.3284C33.02 12.3284 33.02 12.4183 33.02 12.4583C33 12.4583 33 12.4783 32.99 12.4783L32.75 12.6483C32.75 12.6483 32.73 12.6483 32.73 12.6683C32.71 12.6683 32.69 12.6683 32.65 12.6683H32.31C32.21 12.6683 32.11 12.7183 32.05 12.7983C32 12.8583 31.96 12.9283 31.95 13.0083C31.88 13.0683 31.82 13.1682 31.82 13.2582V13.3682L31.71 13.4982C31.65 13.5782 31.62 13.6682 31.63 13.7582C31.57 13.8382 31.54 13.9181 31.55 14.0081C31.52 14.0081 31.5 14.0281 31.47 14.0481H31.41C31.41 14.0481 31.41 14.0481 31.4 14.0481C31.3 13.9781 31.17 13.9681 31.06 14.0181L31.01 14.0381C30.96 14.0581 30.9 14.0881 30.87 14.1381L30.79 14.2181C30.75 14.2681 30.71 14.3281 30.7 14.3881C30.64 14.3881 30.57 14.3881 30.52 14.4281L30.43 14.4681C30.34 14.5081 30.27 14.588 30.23 14.678C30.22 14.678 30.21 14.678 30.19 14.698L30.08 14.748C30 14.788 29.94 14.848 29.91 14.918L29.88 14.978L29.86 14.998C29.8 15.038 29.76 15.098 29.72 15.168C29.7 15.188 29.68 15.208 29.65 15.238L29.61 15.298C29.61 15.298 29.53 15.3379 29.51 15.3679L29.44 15.4279C29.44 15.4279 29.38 15.4979 29.36 15.5379C29.23 15.6079 29.15 15.7479 29.16 15.8979V15.9579C29.16 15.9579 29.16 15.9779 29.18 15.9979C29.18 16.0079 29.18 16.0379 29.18 16.0479C29.12 16.1178 29.08 16.2078 29.08 16.2978V16.3278C29.08 16.3278 29.06 16.3478 29.05 16.3578L28.87 16.5478C28.87 16.5478 28.82 16.6078 28.8 16.6478C28.65 16.7278 28.58 16.8877 28.6 17.0477C28.58 17.0677 28.56 17.0877 28.54 17.0977L28.4 17.2577C28.4 17.2577 28.39 17.2777 28.38 17.2877H28.24C28.19 17.2277 28.12 17.1877 28.04 17.1777L27.85 17.1477H27.81C27.68 17.1077 27.55 17.1477 27.46 17.2477L27.3 17.4077C27.23 17.3677 27.16 17.3477 27.08 17.3577H26.91C26.85 17.3777 26.79 17.3977 26.74 17.4277L26.64 17.4977H26.24C26.22 17.3777 26.16 17.2777 26.07 17.2177L25.81 17.0577C25.77 16.9577 25.67 16.8777 25.56 16.8477L25.4 16.8078C25.4 16.8078 25.34 16.7478 25.3 16.7278C25.21 16.6778 25.1 16.6578 25.01 16.6878L24.9 16.7178C24.8 16.7478 24.71 16.8178 24.66 16.9077L24.63 16.9677L24.38 17.1377C24.27 17.2177 24.21 17.3277 24.22 17.4477V17.6976C24.22 17.6976 24.22 17.7476 24.24 17.7776C24.22 17.8176 24.2 17.8676 24.2 17.9076C24.15 17.9876 24.12 18.0676 24.1 18.1576L24.05 18.2076C23.95 18.2076 23.85 18.2676 23.79 18.3475L23.63 18.5575C23.63 18.5575 23.58 18.6375 23.56 18.6875L23.52 18.8475C23.52 18.8475 23.44 18.9575 23.42 19.0175C23.31 19.0774 23.23 19.1774 23.22 19.3074L23.19 19.5674V19.6074H23.15H22.94C22.87 19.5674 22.79 19.5574 22.71 19.5674L22.55 19.5874C22.47 19.5674 22.39 19.5774 22.31 19.6074L22.13 19.6874C22.03 19.7274 21.96 19.7974 21.92 19.8973L21.84 20.1073C21.84 20.1073 21.82 20.1573 21.82 20.1873L21.79 20.3773C21.79 20.3773 21.75 20.4573 21.75 20.4973L21.7 20.7372C21.7 20.7372 21.63 20.7972 21.61 20.8372L21.37 21.1972C21.37 21.1972 21.35 21.2172 21.35 21.2272C21.29 21.1772 21.21 21.1372 21.13 21.1272C21.13 21.1272 21.11 21.0572 21.11 21.0272L21.03 20.8472C20.99 20.7472 20.9 20.6572 20.79 20.6272L20.65 20.5872L20.46 20.3673C20.46 20.3673 20.44 20.3573 20.44 20.3473C20.46 20.3073 20.48 20.2773 20.48 20.2273C20.55 20.1673 20.59 20.0973 20.61 20.0073L20.63 19.8973C20.7 19.8273 20.73 19.7374 20.73 19.6374V19.5674C20.73 19.5674 20.82 19.5974 20.87 19.5974H21.03C21.09 19.5974 21.15 19.5874 21.2 19.5574L21.33 19.4874C21.44 19.4274 21.52 19.3174 21.53 19.1874C21.57 19.1574 21.61 19.1174 21.63 19.0774L21.7 18.9375C21.72 18.8875 21.74 18.8375 21.75 18.7775C21.85 18.6975 21.91 18.5875 21.91 18.4475V18.3275C21.96 18.2676 21.99 18.1976 21.99 18.1176V18.0776C22.07 18.0076 22.13 17.9076 22.13 17.7976V17.6576C22.13 17.6576 22.13 17.5876 22.11 17.5477C22.15 17.4877 22.17 17.4077 22.17 17.3477V17.2477L22.2 17.1677C22.24 17.0177 22.2 16.8577 22.07 16.7678L22.01 16.7178C22.01 16.7178 21.99 16.6978 21.98 16.6978C21.96 16.6178 21.92 16.5478 21.87 16.4978C21.87 16.3978 21.81 16.3078 21.73 16.2378L21.55 16.0978C21.53 16.0179 21.5 15.9579 21.45 15.9079L21.37 15.8379C21.37 15.7479 21.33 15.6579 21.26 15.5879L21.21 15.5479C21.13 15.4679 21.02 15.4279 20.91 15.4479L20.78 15.4679C20.78 15.4679 20.7 15.4779 20.67 15.4979L20.6 15.4479C20.6 15.4479 20.54 15.4079 20.5 15.3979L20.45 15.3779L20.22 15.158C20.14 15.078 20.05 15.048 19.94 15.048H19.9L19.82 15.008C19.76 14.898 19.66 14.828 19.54 14.818L19.39 14.798C19.32 14.798 19.25 14.798 19.19 14.838L18.94 14.958C18.86 14.998 18.8 15.058 18.76 15.138L18.73 15.208C18.7 15.278 18.69 15.3379 18.7 15.4079L18.62 15.4779C18.55 15.5379 18.52 15.6179 18.5 15.7079V15.7779H18.48C18.45 15.8179 18.44 15.8779 18.43 15.9279V16.0079L18.35 16.0978C18.35 16.1178 18.33 16.1278 18.32 16.1378L18.26 16.2378V16.2678C18.19 16.2978 18.13 16.3378 18.09 16.3978L18.04 16.4878C18.04 16.4878 18.02 16.5178 18.01 16.5378L17.85 16.6178C17.85 16.6178 17.82 16.6378 17.8 16.6478H17.78C17.71 16.6778 17.65 16.7178 17.61 16.7678L17.5 16.8777C17.5 16.8777 17.45 16.9477 17.42 16.9877L17.37 17.1077C17.37 17.1077 17.34 17.1877 17.34 17.2377C17.32 17.2877 17.3 17.3477 17.3 17.4077V17.4677C17.27 17.5377 17.26 17.6076 17.26 17.6776V17.7376V17.8276L17.14 18.0476L17.11 18.0976C17.11 18.0976 17.05 18.1076 17.03 18.1276L16.93 18.1676C16.88 18.1876 16.83 18.2276 16.79 18.2676L16.72 18.3675C16.63 18.3975 16.55 18.4675 16.5 18.5575L16.47 18.6175C16.43 18.6975 16.42 18.7875 16.44 18.8675L16.47 18.9875C16.48 19.0375 16.51 19.0874 16.54 19.1274V19.1774C16.54 19.2874 16.6 19.3974 16.7 19.4574L16.94 19.6274C16.94 19.6274 17.04 19.6774 17.09 19.6974C17.09 19.6974 17.09 19.704 17.09 19.7174L17.01 19.9573L16.83 20.2473C16.83 20.2473 16.79 20.3373 16.78 20.3773L16.73 20.6872L16.68 20.8672L16.64 20.9272C16.6 21.0072 16.57 21.0972 16.59 21.1772L16.62 21.3371C16.62 21.3371 16.64 21.4171 16.66 21.4571C16.61 21.5471 16.59 21.6471 16.62 21.7371V21.7571V21.7771L16.56 21.6971C16.52 21.6471 16.46 21.5971 16.4 21.5671L16.12 21.4471L16.07 21.4071L15.86 21.1472C15.86 21.1472 15.8 21.0872 15.76 21.0672C15.74 21.0372 15.72 21.0072 15.69 20.9872L15.66 20.9572C15.55 20.8572 15.4 20.8372 15.26 20.8872L15.16 20.9272C15.16 20.9272 15.08 20.9672 15.05 20.9972C15.01 20.9972 14.98 20.9772 14.95 20.9772H14.75C14.67 20.9072 14.55 20.8772 14.44 20.9072L14.31 20.9272C14.22 20.9472 14.15 20.9872 14.09 21.0572L13.88 21.3071C13.83 21.3671 13.8 21.4371 13.79 21.5171L13.77 21.6971L13.69 21.8071C13.6 21.7471 13.49 21.7271 13.39 21.7571L13.09 21.8271C13.09 21.8271 13.02 21.8471 12.99 21.8671L12.63 22.0671L12.59 21.9571C12.55 21.8371 12.45 21.7471 12.33 21.7071L12.19 21.6671C12.13 21.6571 12.06 21.6471 12 21.6671L11.84 21.7071L11.51 21.7271C11.45 21.6071 11.32 21.5271 11.17 21.5271H11.08C11.01 21.5271 10.95 21.5471 10.89 21.5771L10.64 21.7171L10.56 21.7471C10.5 21.6671 10.42 21.6271 10.32 21.6071V21.4571C10.32 21.4571 10.3 21.4071 10.3 21.3871L10.15 20.8172C10.15 20.8172 10.13 20.7772 10.13 20.7572L10.03 20.5473C9.99999 20.4873 9.94999 20.4373 9.89999 20.3973L9.70999 20.2673C9.63999 20.2173 9.54999 20.1873 9.45999 20.1973H9.35999L9.25999 20.1173C9.16999 20.0473 9.04999 20.0173 8.93999 20.0473L8.68999 20.1073L8.57999 20.0673L8.54999 19.9973L8.52999 19.6274L8.54999 19.5474C8.57999 19.4074 8.52999 19.2774 8.43999 19.1774L8.35999 19.1074C8.28999 19.0475 8.19999 19.0075 8.10999 19.0075H7.74999L7.63999 18.9875L7.29999 18.6375C7.26999 18.4775 7.13999 18.3475 6.95999 18.3275H6.85999C6.75999 18.3076 6.65999 18.3475 6.57999 18.4075L6.39999 18.5575C6.30999 18.6375 6.25999 18.7575 6.26999 18.8775L6.28999 19.0175L6.20999 19.1174C6.14999 19.1974 6.11999 19.2874 6.12999 19.3674V19.4874L6.04999 19.5074C5.98999 19.5074 5.93999 19.5474 5.88999 19.5774L5.89999 19.4774C5.96999 19.4374 6.01999 19.3574 6.03999 19.2874L6.08999 19.1474C6.08999 19.1474 6.08999 19.1074 6.10999 19.0874L6.12999 18.8775C6.17999 18.8075 6.19999 18.7175 6.18999 18.6275V18.5375C6.18999 18.5375 6.15999 18.4675 6.14999 18.4275C6.14999 18.3875 6.12999 18.3475 6.10999 18.3076C6.10999 18.2276 6.07999 18.1676 6.03999 18.1076L6.00999 18.0676C6.00999 18.0676 5.92999 17.9776 5.86999 17.9576C5.82999 17.9176 5.78999 17.8776 5.72999 17.8476L5.66999 17.8176V17.7676C5.64999 17.6976 5.62999 17.6376 5.58999 17.5876L5.56999 17.5177C5.56999 17.5177 5.56999 17.5177 5.56999 17.4977L5.59999 17.4177C5.67999 17.3377 5.72999 17.2277 5.70999 17.1077V17.0777C5.68999 17.0077 5.66999 16.9477 5.62999 16.9077C5.62999 16.9077 5.62999 16.8977 5.60999 16.8877L5.49999 16.7078C5.49999 16.7078 5.49999 16.6678 5.49999 16.6478C5.54999 16.5878 5.57999 16.5178 5.57999 16.4378V16.4178L5.66999 16.1678C5.66999 16.1678 5.68999 16.0879 5.68999 16.0379V15.9079C5.68999 15.8079 5.64999 15.7179 5.58999 15.6579L5.47999 15.5379C5.40999 15.4679 5.32999 15.4279 5.22999 15.4179C5.19999 15.4079 5.16999 15.3879 5.12999 15.3779L4.99999 15.3379C4.99999 15.3379 4.97999 15.3379 4.97999 15.328C4.89999 15.268 4.77999 15.248 4.68999 15.258L4.62999 15.278C4.62999 15.278 4.52999 15.308 4.48999 15.328L4.40999 15.3479C4.35999 15.3679 4.30999 15.3879 4.25999 15.4279L4.08999 15.5679C4.03999 15.5879 3.97999 15.6179 3.94999 15.6579L3.87999 15.7279C3.77999 15.7679 3.69999 15.8479 3.65999 15.9479L3.60999 15.9979H3.58999L3.56999 15.9779C3.50999 15.9279 3.42999 15.8979 3.34999 15.8879H3.20999C3.20999 15.8879 3.15999 15.8879 3.12999 15.8879C3.11999 15.8679 3.09999 15.8479 3.08999 15.8379L2.98999 15.7379C2.92999 15.6779 2.84999 15.6379 2.76999 15.6379L2.51999 15.6079L2.46999 15.5479C2.46999 15.5479 2.43999 15.5279 2.42999 15.5179C2.42999 15.7879 2.42999 16.0679 2.42999 16.3378H2.49999C2.49999 16.3378 2.53999 16.4278 2.56999 16.4578L2.68999 16.5878C2.75999 16.6678 2.85999 16.7178 2.96999 16.7178L3.04999 16.7378Z" fill="white"/>
<path d="M3.07001 13.4582C3.12001 12.5183 3.62001 11.6584 4.41001 11.1385C8.73001 8.30889 13.57 6.10918 18.83 4.69937L18.09 1.94974C12.08 3.56952 6.55001 6.07919 1.62001 9.30876C0.710009 9.89868 0.150009 10.8785 0.0900091 11.9484C-0.239991 17.8476 0.350009 23.8868 1.96001 29.906L4.71001 29.1661C3.30001 23.8968 2.79001 18.6175 3.07001 13.4582Z" fill="#4DCC89"/>
<path d="M36.05 0.0899883C30.15 -0.239968 24.11 0.349954 18.09 1.95974L18.83 4.70937C24.1 3.29956 29.38 2.78963 34.54 3.06959C35.48 3.11958 36.34 3.61952 36.86 4.40941C39.69 8.72883 41.89 13.5682 43.3 18.8275L46.05 18.0876C44.44 12.0684 41.92 6.54913 38.69 1.60979C38.1 0.699907 37.12 0.139982 36.05 0.0799896V0.0899883Z" fill="white"/>
<path d="M13.46 44.924C12.52 44.874 11.66 44.3741 11.14 43.5842C8.32001 39.2548 6.11001 34.4154 4.70001 29.1661L1.95001 29.906C3.56001 35.9252 6.08001 41.4445 9.31001 46.3838C9.90001 47.2837 10.88 47.8536 11.96 47.9136C17.86 48.2435 23.9 47.6536 29.91 46.0438L29.18 43.2942C23.91 44.704 18.63 45.214 13.47 44.934L13.46 44.924Z" fill="white"/>
<path d="M47.91 36.0452C48.24 30.146 47.65 24.1068 46.04 18.0976L43.29 18.8375C44.7 24.0968 45.21 29.3861 44.93 34.5454C44.88 35.4853 44.38 36.3451 43.59 36.8651C39.27 39.6947 34.43 41.8944 29.17 43.3042L29.91 46.0538C35.93 44.4441 41.45 41.9244 46.39 38.6948C47.3 38.1049 47.86 37.125 47.92 36.0552L47.91 36.0452Z" fill="#EB3B5A"/>
</svg>
